<svg viewBox="0 0 269 192" fill="none"
    xmlns="http://www.w3.org/2000/svg">
    <path d="M110.699 44.2049C108.405 43.9076 88.0445 43.9076 84.3915 44.2049C84.3289 44.2185 84.2737 44.2553 84.237 44.3077C84.2003 44.3602 84.1847 44.4246 84.1932 44.4881C84.2062 44.5355 84.2313 44.5787 84.2661 44.6134C84.3009 44.6482 84.3441 44.6733 84.3915 44.6863C87.6763 44.9695 108.363 45.0969 110.628 44.7996C110.954 44.7712 111.053 44.2474 110.699 44.2049ZM206.342 79.6306C206.059 79.6306 202.42 80.919 203.383 81.4429L204.403 82.2924C204.176 82.8021 206.399 85.1242 204.87 90.5896C204.233 90.1506 204.219 90.5896 204.304 90.7312C206.668 93.1665 223.56 106.688 227.326 109.138C227.666 109.633 229.818 108.571 230.158 108.458C237.638 105.269 244.941 101.677 252.033 97.6973C254.624 96.2815 254.596 91.1984 251.453 89.202C248.146 87.0032 244.704 85.017 241.145 83.2552L245.534 79.8146C245.846 79.5739 245.676 78.6819 244.487 79.6447C241.925 75.5064 240.889 70.604 241.556 65.7831C241.726 65.684 243.623 64.5513 242.787 64.1832C238.54 62.4133 224.466 57.2453 220.133 56.9763C218.717 56.8771 207.39 65.9389 206.328 67.7654C204.063 71.5458 204.757 75.8643 206.413 79.673L206.342 79.6306ZM205.21 90.8019C206.626 89.2586 206.187 85.0251 205.507 83.1561C207.447 84.7136 223.036 96.4655 227.991 99.6088C230.667 105.272 227.68 108.019 227.779 108.444C219.482 102.681 212.728 96.0974 205.21 90.8019ZM251.354 90.1648C253.718 91.3825 253.18 96.4514 251.481 97.046C243.872 101.122 236.107 104.901 228.204 108.373C229.249 106.963 229.819 105.258 229.832 103.503L240.734 99.0283C240.933 98.9292 240.734 98.6602 240.579 98.7026C236.918 99.9263 233.334 101.368 229.846 103.021C229.819 101.645 229.391 100.307 228.614 99.1699C231.942 97.8531 248.947 89.0321 251.354 90.1648ZM227.751 75.7793C231.917 72.3299 236.275 69.1201 240.805 66.1654C240.475 67.887 240.413 69.6494 240.621 71.39C239.927 71.6166 231.347 77.9032 230.908 78.243C230.724 78.3846 230.908 78.6819 231.135 78.5686L240.72 72.0555C241.018 74.0519 242.221 78.597 244.076 79.8288C242.193 81.3579 232.876 88.7347 230.611 88.7347C228.912 87.0962 227.737 84.9915 227.233 82.6859C226.729 80.3803 226.919 77.9771 227.779 75.7793H227.751ZM225.896 63.5602C226.887 64.4097 222.781 66.8026 222.625 66.845C222.158 66.9866 221.846 66.5052 222.852 65.5424C223.361 65.1035 225.23 63.0363 225.896 63.5743V63.5602ZM218.179 65.9247C218.887 64.5088 221.832 62.1584 223.078 61.3089C223.202 61.2225 223.355 61.1889 223.504 61.2155C223.653 61.242 223.785 61.3266 223.871 61.4505C223.958 61.5744 223.991 61.7276 223.965 61.8763C223.938 62.025 223.853 62.157 223.73 62.2434C222.625 63.0929 219.623 65.9105 218.788 66.4911C218.725 66.5258 218.655 66.544 218.583 66.544C218.511 66.544 218.44 66.5258 218.377 66.4911C218.328 66.4683 218.283 66.4358 218.246 66.3955C218.209 66.3553 218.181 66.308 218.162 66.2566C218.144 66.2052 218.136 66.1506 218.139 66.096C218.142 66.0415 218.155 65.988 218.179 65.9389V65.9247ZM207.787 68.3742C213.861 70.0224 219.828 72.0415 225.655 74.4201C226.023 74.6041 225.896 75.2271 225.457 75.1422C219.387 73.4508 213.424 71.394 207.603 68.983C207.538 68.9468 207.487 68.8895 207.46 68.8207C207.432 68.7519 207.428 68.6757 207.45 68.6047C207.471 68.5336 207.516 68.4721 207.578 68.4302C207.639 68.3883 207.713 68.3685 207.787 68.3742ZM206.739 80.3102C213.493 84.1189 226.066 88.9613 230.809 89.6692C231.758 89.8108 239.46 84.4021 240.72 83.4818C241.542 84.2888 248.38 88.1542 250.122 89.2303C247.602 89.3577 229.308 97.8814 227.991 98.7168C220.133 92.8408 211.978 86.8799 203.921 81.2871L206.753 80.3102H206.739ZM133.693 17.218C133.607 17.1826 133.51 17.1826 133.424 17.218C132.588 17.7277 127.76 24.2974 126.783 25.5293C125.849 24.255 124.9 22.9948 123.952 21.763C123.767 21.5364 123.385 21.763 123.527 22.0603C124.475 23.5753 125.495 25.0337 126.528 26.4921C126.698 26.7186 127.024 26.6053 127.166 26.4213C128.058 25.2886 133.735 18.4356 133.976 17.6569C133.986 17.6095 133.987 17.5605 133.979 17.5127C133.97 17.4649 133.952 17.4193 133.926 17.3785C133.899 17.3377 133.865 17.3025 133.825 17.275C133.785 17.2474 133.74 17.228 133.693 17.218ZM106.692 46.9517C98.1964 47.1216 88.7807 46.9517 85.1277 47.2632C85.0526 47.2632 84.9806 47.2931 84.9275 47.3462C84.8744 47.3993 84.8445 47.4713 84.8445 47.5464C84.8445 47.6215 84.8744 47.6935 84.9275 47.7466C84.9806 47.7997 85.0526 47.8296 85.1277 47.8296C89.517 47.8296 103.18 48.2827 106.692 47.5322C106.989 47.4614 106.932 47.0367 106.692 46.9517ZM107.003 32.722C107.286 32.722 107.371 32.2406 107.003 32.1981C104.172 31.7733 87.1808 32.6087 83.0605 33.2459C82.9854 33.2459 82.9134 33.2757 82.8603 33.3288C82.8072 33.3819 82.7773 33.454 82.7773 33.5291C82.7773 33.6042 82.8072 33.6762 82.8603 33.7293C82.9134 33.7824 82.9854 33.8122 83.0605 33.8122C88.6108 33.8122 101.226 32.9485 106.932 32.7503L107.003 32.722ZM101.368 35.5538C101.609 35.5538 101.736 35.0724 101.368 34.9874C99.9521 34.6335 85.7932 34.9874 83.6552 35.2281C83.6215 35.2333 83.5892 35.2451 83.5602 35.2629C83.5312 35.2808 83.506 35.3042 83.4862 35.3319C83.4664 35.3597 83.4524 35.3911 83.4449 35.4243C83.4375 35.4576 83.4368 35.4919 83.4428 35.5255C83.4505 35.5805 83.475 35.6319 83.513 35.6725C83.5511 35.713 83.6007 35.7408 83.6552 35.752C86.3879 35.9078 99.6973 36.0069 101.368 35.5538ZM131.555 43.3412C132.334 42.2085 123.796 42.6191 123.428 43.0014C123.06 43.3837 123.428 49.203 123.428 49.741C123.428 50.5764 131.343 50.5623 131.654 50.3216C132.007 48.0177 132.007 45.6734 131.654 43.3695L131.555 43.3412ZM130.946 49.6844C130.196 49.6844 124.631 49.7835 124.178 49.4295C124.178 47.4331 124.051 45.4509 123.98 43.4686H131.059C130.804 45.5309 130.767 47.6142 130.946 49.6844Z" fill="#4F4CC7"/>
    <path d="M231.341 82.6985C233.323 81.5233 235.348 80.3764 237.26 79.1021C237.529 78.918 237.26 78.4366 236.948 78.6065L231.129 82.3728C231.096 82.4049 231.075 82.4473 231.07 82.4929C231.065 82.5385 231.076 82.5844 231.101 82.6228C231.126 82.6612 231.164 82.6897 231.208 82.7035C231.251 82.7173 231.299 82.7155 231.341 82.6985ZM217.069 98.245C216.899 98.1317 216.672 98.4007 216.842 98.5423C218.258 99.7742 225.224 104.645 226.754 105.721C226.952 105.863 227.122 105.537 226.938 105.395C223.964 103.13 220.226 100.142 217.069 98.245ZM125.347 38.4235C126.084 38.4235 131.846 39.089 131.79 38.1403C131.733 37.1917 131.648 31.7405 131.28 31.5706C131.181 30.6219 124.002 31.3157 123.337 31.4431C122.926 31.4431 123.096 36.9651 123.124 37.6306C123.167 38.5934 124.71 38.3952 125.347 38.4235ZM130.912 31.8962V37.8571C128.527 37.6117 126.126 37.5644 123.733 37.7155C123.827 35.7754 123.789 33.8312 123.62 31.8962C124.795 31.8962 130.161 32.0803 130.912 31.8962ZM226.442 103.002C226.478 103.032 226.523 103.049 226.57 103.049C226.616 103.049 226.661 103.032 226.697 103.002C226.725 102.971 226.74 102.931 226.74 102.889C226.74 102.847 226.725 102.807 226.697 102.776C220.212 98.1742 213.77 92.6381 207.398 88.3196C207.214 88.178 206.931 88.447 207.115 88.6311C210.683 92.0292 221.826 99.9582 226.499 103.073L226.442 103.002ZM131.761 22.254C131.742 22.1907 131.698 22.1376 131.64 22.1059C131.582 22.0742 131.514 22.0664 131.45 22.0841C131.407 22.0941 131.368 22.1151 131.335 22.1448C131.303 22.1746 131.279 22.2122 131.266 22.254V27.2096H123.422C123.284 24.9278 123.029 22.6546 122.657 20.3992C124.872 20.502 127.091 20.4452 129.298 20.2292C129.347 20.2132 129.39 20.1805 129.418 20.1367C129.447 20.0928 129.459 20.0405 129.453 19.9885C129.445 19.9584 129.431 19.9303 129.412 19.9059C129.392 19.8816 129.368 19.8615 129.34 19.847C128.816 19.677 122.261 19.1107 122.459 20.2434C121.808 20.2434 122.756 27.3229 122.756 27.3229C123.096 28.1866 124.526 27.8892 125.276 27.8892C126.027 27.8892 131.237 28.0167 131.662 27.8892C132.342 27.6202 131.96 23.0893 131.804 22.2257L131.761 22.254Z" fill="#4F4CC7"/>
    <path d="M268.589 150.699C250.55 151.804 232.507 152.748 214.459 153.531C214.224 150.949 213.75 148.394 213.043 145.9C230.978 145.428 248.913 144.875 266.847 144.243C266.939 144.232 267.024 144.191 267.091 144.127C267.157 144.064 267.201 143.98 267.215 143.889C267.228 143.778 267.196 143.668 267.127 143.58C267.058 143.493 266.958 143.436 266.847 143.422C248.837 144.092 230.832 144.644 212.831 145.078C208.583 130.268 199.621 116.18 189.171 105.023C188.846 101.256 188.832 99.3591 187.217 95.5787C184.103 88.4284 180.662 86.9417 180.747 88.6408C180.746 89.0883 180.818 89.5331 180.959 89.9576C180.393 89.2496 176.23 84.917 175.381 87.2532C174.754 86.8591 174.047 86.6112 173.312 86.5279C172.576 86.4445 171.832 86.5279 171.133 86.7718C168.485 82.5241 164.053 82.5241 161.222 81.1083C155.813 78.2765 158.305 69.2431 162.284 65.8732C162.284 65.8732 179.373 65.5476 179.388 65.3352C179.699 61.3282 183.111 0.34567 183.111 0.34567C141.003 -0.489708 95.6941 0.34567 53.8969 1.19521C53.6137 1.19521 53.373 1.37927 53.4013 1.63414C55.9216 23.0849 62.1091 66.9918 62.1091 66.9918C63.1285 67.4024 155.686 65.9582 161.222 65.8732C158.854 68.4556 157.558 71.8423 157.597 75.3456C157.88 84.2657 164.974 80.4711 170.779 86.9984C167.013 88.6125 166.531 93.3841 167.947 96.7964C168.204 97.4506 168.552 98.0655 168.981 98.6229C169.04 99.9534 169.419 101.25 170.085 102.403C171.898 105.844 175.126 107.033 175.296 107.543C175.296 115.557 176.981 125.327 178.581 133.142C173.186 130.311 157.186 123.557 140.734 123.075C141.668 114.962 148.677 113.943 147.714 108.52C150.645 108.407 153.576 108.293 156.507 108.152C157.243 108.152 156.436 105.886 156.351 105.504C155.162 100.265 153.968 95.0359 152.769 89.816C152.585 89.1081 151.764 84.3506 151.07 84.3506L141.937 84.5206C139.927 82.6091 135.212 81.9012 133.286 84.1241C130.454 78.6729 121.704 79.4658 121.421 84.7613C119.028 83.133 115.474 82.8073 113.308 85.0161C113.081 85.1152 70.2505 85.6957 63.879 85.9506H63.7657C63.6968 85.9943 63.6479 86.0633 63.6294 86.1428C63.6108 86.2222 63.6242 86.3057 63.6666 86.3754C63.7798 87.1116 60.0844 104.584 59.6454 108.789C59.6454 109.384 66.0594 109.299 66.7249 109.299C57.5782 120.017 49.3519 132.109 46.9024 146.254C31.4691 146.013 16.0359 145.631 0.602654 145.687C0.52755 145.687 0.455522 145.717 0.402416 145.77C0.34931 145.823 0.319475 145.895 0.319475 145.97C0.319475 146.045 0.34931 146.117 0.402416 146.171C0.455522 146.224 0.52755 146.254 0.602654 146.254C15.9651 146.919 31.37 146.99 46.7466 147.103C46.2886 149.91 46.0989 152.755 46.1803 155.598C30.8886 155.287 15.597 154.806 0.319475 154.551C-0.0203393 154.551 -0.076975 155.089 0.319475 155.089C15.6111 155.867 30.9311 156.151 46.2511 156.377C46.6475 164.065 49.6775 173.495 57.2101 176.95C60.3109 183.038 66.8807 188.518 74.2008 186.946C73.9884 188.051 73.7902 189.183 73.5778 190.316C73.4929 190.826 74.2575 191.038 74.3424 190.529C76.4238 179.315 78.5901 168.044 82.2289 157.227C82.3422 156.887 81.8325 156.759 81.7051 157.085C78.1653 166.487 76.1689 176.37 74.3283 186.21C66.8382 187.3 60.8631 182.529 57.7623 176.072C56.094 172.661 55.1291 168.948 54.9247 165.156C54.7204 161.364 55.2809 157.57 56.5729 153.998C60.4383 144.087 70.7319 137.008 80.8414 132.165C91.1204 127.294 102.16 124.224 113.478 123.09C114.285 130.65 122.978 133.213 129.605 132.817C136.231 132.42 140.153 130.396 140.72 123.713C140.804 123.713 164.634 124.236 185.207 137.985C191.253 142.02 196.746 147.202 199.961 153.786C203.104 160.143 204.208 167.945 201.376 174.571C197.327 184.228 189.936 185.63 185.037 186.493C183.305 176.126 179.961 166.093 175.126 156.759C174.998 156.519 174.602 156.675 174.729 156.929C179.772 167.802 183.21 179.348 184.938 191.208C184.938 191.576 185.674 191.675 185.674 191.208C185.617 189.912 185.446 188.623 185.164 187.357C190.504 186.898 195.448 184.354 198.927 180.277C210.254 177.446 215.196 165.198 214.502 154.409C232.587 153.673 250.654 152.729 268.702 151.577C269.198 151.393 269.014 150.699 268.589 150.699ZM62.1657 58.0433C59.3339 40.0332 57.0827 22.108 54.5199 4.08363C96.9967 3.34736 140.578 3.65886 182.474 2.95092L179.204 56.0611C161.519 56.5991 64.4453 57.1513 62.1657 58.0433ZM147.544 107.727C147.285 106.972 146.788 106.321 146.128 105.872C146.862 104.705 147.259 103.357 147.275 101.979H148.04L149.102 107.642L147.544 107.727ZM146.355 97.3486C146.597 97.1534 146.82 96.9353 147.02 96.6972C147.36 98.2122 147.643 99.7273 147.926 101.242H147.247C147.316 99.8868 147.007 98.5387 146.355 97.3486ZM156.039 107.359L149.526 107.642C149.356 105.731 148.988 103.848 148.649 101.979C150.684 102.046 152.722 101.994 154.751 101.823C155.176 103.649 155.615 105.518 156.039 107.359ZM154.624 101.171H148.535L147.516 95.8619L153.392 95.692L154.624 101.171ZM153.208 95.0831L147.672 95.253C147.778 94.5816 147.73 93.8947 147.531 93.2446C147.333 92.5944 146.988 91.9981 146.525 91.5009C146.44 91.0761 146.355 90.6372 146.242 90.1983L152.075 90.0709L153.208 95.0831ZM151.041 84.9736C151.353 86.3895 151.636 87.9045 151.919 89.3771L146.1 89.4762C145.803 87.9875 145.42 86.5173 144.953 85.0728L151.041 84.9736ZM145.689 90.977C145 90.6637 144.221 90.6084 143.495 90.8213C143.56 90.646 143.612 90.4661 143.65 90.2832H145.519L145.689 90.977ZM144.273 85.0869C144.539 86.5734 144.889 88.0436 145.321 89.4903H143.75C143.912 87.9216 143.477 86.3495 142.532 85.0869H144.273ZM109.995 85.6957H112.727C112.15 86.5878 111.947 87.6709 112.161 88.7116L109.754 89.4054C109.867 88.1877 109.995 86.8285 109.995 85.6957ZM109.23 85.6957V89.6461C108.99 89.7887 108.759 89.9447 108.536 90.1133L101.839 90.2266C101.901 88.7576 101.858 87.2861 101.712 85.8232L109.23 85.6957ZM106.257 95.961H101.797V91.0053L107.602 90.9062C106.988 91.5786 106.545 92.3891 106.311 93.269C106.077 94.1489 106.058 95.0724 106.257 95.961ZM101.825 102.517H105.69C105.745 103.752 106.202 104.935 106.993 105.886C106.526 106.21 106.15 106.648 105.902 107.159C105.654 107.67 105.542 108.236 105.577 108.803H101.754C101.797 106.679 101.825 104.598 101.825 102.517ZM106.073 100.803C105.948 101.099 105.858 101.408 105.804 101.724H101.896V96.6123H106.469C106.777 97.4573 107.329 98.1917 108.055 98.722C107.17 99.1799 106.456 99.9094 106.016 100.803H106.073ZM101.329 108.789H83.7864C83.9705 106.354 83.7864 104.824 85.3581 102.729L101.174 102.545C101.159 104.626 101.202 106.708 101.273 108.789H101.329ZM85.9386 101.95C87.4119 100.461 88.5258 98.6543 89.1951 96.6689H92.7349V101.865L85.9386 101.95ZM93.641 85.9789L101.06 85.8515C100.981 87.3182 100.981 88.7882 101.06 90.2549L93.5986 90.3824C93.5986 88.924 93.6127 87.4515 93.641 85.9789ZM93.5419 91.1611L101.032 91.0337V95.9893H93.4428C93.4428 94.3752 93.4428 92.7752 93.5419 91.1611ZM93.4428 96.6548H101.103V101.766L93.1313 101.865C93.2446 100.124 93.3296 98.4388 93.4428 96.6548ZM86.3633 86.1064L93.1455 85.9931L92.9897 90.3965L86.0802 90.5098C86.2483 89.0484 86.3004 87.576 86.2359 86.1064H86.3633ZM86.0235 91.2744L92.9756 91.1611L92.8481 95.9752H89.3792C89.5491 95.1964 89.8606 93.9221 88.9403 93.4973C88.0199 93.0726 87.1421 95.1964 85.443 95.961C85.5988 94.4035 85.7404 92.846 85.8961 91.2885L86.0235 91.2744ZM79.9635 86.2196L85.8111 86.1205C85.6088 87.5809 85.4812 89.0506 85.4289 90.5239H84.9475C85.5563 89.0373 82.2714 88.0744 79.4396 90.5239C79.4821 89.8018 79.8786 86.701 79.8361 86.2196H79.9635ZM85.2448 91.3593C85.1457 92.9026 85.0607 94.4318 84.9616 95.9752H82.7528C82.328 94.7292 82.7528 91.7983 83.8855 91.3593H85.2165H85.2448ZM79.114 86.2621L78.8874 90.6514H76.2397C75.1919 88.4709 75.8574 86.8143 74.8238 86.2904L79.114 86.2621ZM78.5476 91.4443C78.2212 91.8532 77.9454 92.3001 77.7264 92.7752L76.6786 91.4868L78.5476 91.4443ZM69.5001 86.4462L74.0451 86.3612C72.6292 87.0408 72.4168 89.4479 72.4168 90.7646H70.2788C69.5567 90.1416 69.2452 90.7646 68.7072 90.7646L69.4717 86.3612L69.5001 86.4462ZM72.6433 93.6389C71.8576 93.1147 71.2191 92.3982 70.7885 91.5576H72.3885C72.4053 92.2551 72.4716 92.9507 72.5867 93.6389H72.6433ZM67.9567 95.7628L68.6364 91.6C68.4944 93.0372 68.6733 94.4881 69.1602 95.8477L67.9567 95.7628ZM69.3726 96.4565C69.9531 98.3963 70.7885 100.166 71.185 102.12L66.9373 102.205L67.7868 96.4424L69.3726 96.4565ZM64.2329 86.4603H68.8771C68.608 87.8762 68.3532 89.4054 68.0983 90.8921C66.555 90.8921 64.9975 90.977 63.4542 91.0478C63.7876 89.5347 64.0288 88.0027 64.1763 86.4603H64.2329ZM63.3551 91.6283H67.9567C67.7443 93.0442 67.5178 94.4601 67.2913 95.7769H62.548C62.7887 94.361 63.0436 92.9876 63.2984 91.6283H63.3551ZM62.4914 96.2725C64.0489 96.3574 65.6063 96.3999 67.1638 96.4282C66.8948 98.3397 66.5833 100.279 66.3285 102.205C64.6719 102.205 63.0153 102.318 61.3587 102.389C61.741 100.35 62.1091 98.3114 62.4914 96.2725ZM65.6771 108.548H60.2118C60.5658 106.651 60.9339 104.768 61.3162 102.885L66.2293 103.012C65.9306 104.846 65.7274 106.694 65.6205 108.548H65.6771ZM66.0736 108.548L66.909 102.885H71.3124C71.3548 103.261 71.3548 103.641 71.3124 104.017L67.3337 108.562L66.0736 108.548ZM56.4314 152.059C54.7753 155.832 53.9474 159.917 54.0036 164.037C54.0597 168.158 54.9987 172.218 56.757 175.945C43.0512 166.685 45.9679 146.211 51.8014 133.128C56.5729 122.41 64.1338 113.306 71.8788 104.57C73.0115 103.281 69.3443 94.6584 69.2169 92.5487C69.1319 90.977 69.7832 90.6514 70.3637 91.7699C70.9443 92.8885 71.7796 94.1628 72.9265 94.4318C73.3796 95.7628 73.7336 95.338 73.6769 95.1256C73.1955 92.7894 72.3602 89.462 73.9176 87.3099C75.0504 85.809 75.0079 88.57 75.1211 89.108C75.3902 90.3965 76.537 92.8885 77.5706 93.3557C77.2167 94.361 77.8113 94.007 77.8538 93.8796C79.8644 88.5983 86.0094 89.3488 84.0271 90.6514C83.5045 90.9633 83.0603 91.3911 82.729 91.9017C82.3976 92.4122 82.1878 92.992 82.1157 93.5964C81.3936 98.5945 85.3297 97.8441 88.1898 94.361C89.3792 92.9451 89.4358 95.9893 87.5527 99.0618C85.9527 101.667 83.7864 102.602 83.5316 106.014C82.8236 114.353 81.1104 124.307 79.9635 131.642C70.562 136.187 60.9481 142.332 56.3747 152.073L56.4314 152.059ZM80.6998 131.259C82.0823 124.06 83.0701 116.79 83.659 109.483H105.62C106.441 114.226 112.331 114.863 113.279 122.226C101.979 123.331 90.9557 126.387 80.6998 131.259ZM140.479 119.833C140.126 120.946 139.898 122.096 139.799 123.259C139.233 129.263 136.684 131.259 130.015 131.755C122.936 132.335 115.262 130.098 114.186 122.467C113.237 115.67 111.057 116.265 107.559 111.507C106.512 110.092 105.577 107.458 107.559 106.354C108.533 107.423 109.753 108.24 111.113 108.732C114.172 115.599 115.205 123.514 124.097 124.392C141.286 125.992 137.435 116.633 142.886 108.463C143.946 107.973 144.906 107.292 145.718 106.453C146.336 106.969 146.762 107.679 146.929 108.467C147.096 109.255 146.994 110.077 146.638 110.8C145.25 114.155 141.909 115.43 140.479 119.833ZM175.565 88.0744C176.046 89.1505 176.542 90.2124 176.981 91.2885C176.287 90.3965 172.889 86.6869 171.756 88.6691C171.175 89.7027 172.393 91.246 172.889 92.1664C170.988 92.5029 169.29 93.5573 168.145 95.1115C166.333 88.5275 172.733 85.2427 175.565 88.0744ZM169.165 97.7167C168.896 97.0512 168.613 96.3716 168.329 95.7061C169.572 94.2514 171.242 93.2257 173.101 92.7752C173.898 94.4197 174.414 96.1854 174.63 97.9999C175.012 101.625 172.237 99.0335 170.892 97.7875C170.368 97.2495 169.49 97.0229 169.094 97.7167H169.165ZM199.819 179.003C204.506 172.433 204.704 163.952 201.985 156.533C198.134 146.041 188.973 138.693 179.331 133.553C177.477 124.991 176.275 116.301 175.735 107.557C175.735 106.226 171.232 105.32 169.83 100.095C169.575 99.1467 169.052 96.6548 170.765 98.4388C172.478 100.223 175.395 101.865 175.267 97.9574C175.097 93.3274 171.954 90.2408 172.237 89.193C172.591 87.8762 175.211 90.354 175.635 90.7788C176.742 91.9964 177.746 93.3035 178.637 94.6867C178.793 94.9132 179.175 94.6867 179.034 94.4743C178.703 93.9079 178.363 93.3416 178.014 92.7752C178.241 92.2938 175.692 87.7913 176.145 87.3665C176.598 86.9417 178.637 88.4143 179.09 88.7824C181.455 90.8354 181.568 92.2089 182.375 93.2708C182.412 93.2837 182.452 93.2837 182.488 93.2708C182.539 93.2749 182.589 93.2596 182.628 93.228C182.668 93.1964 182.694 93.1509 182.701 93.1009C182.616 92.1947 182.092 91.685 181.837 91.062C181.582 90.439 181.058 89.0373 181.412 88.5417C181.582 88.4001 182.559 89.1222 182.672 89.2355C183.607 90.1302 184.386 91.1731 184.98 92.3221C189.313 99.7272 188.01 104.499 188.747 105.221C199.493 117.327 210.976 135.054 213.298 151.053C214.87 162.154 211.373 175.095 199.748 179.003H199.819Z" fill="#2A2A2A"/>
    <path d="M97.1239 24.8065C97.4495 24.7074 97.3221 24.2402 97.0247 24.1977C91.8709 24.2968 86.3914 24.1977 81.3083 24.3393C80.9119 24.3393 80.9685 24.9481 81.3083 25.0048C83.9136 25.4295 94.8584 25.5003 97.1239 24.8065ZM232.299 100.529C234.225 99.6932 243.626 95.8986 244.745 95.2614C244.766 95.2428 244.783 95.2199 244.794 95.1943C244.806 95.1687 244.812 95.1409 244.812 95.1127C244.812 95.0846 244.806 95.0568 244.794 95.0312C244.783 95.0055 244.766 94.9827 244.745 94.9641C244.722 94.9298 244.69 94.9024 244.653 94.8849C244.615 94.8674 244.574 94.8605 244.533 94.865C242.154 95.3605 234.451 99.0277 232.059 100.217C231.931 100.316 232.101 100.613 232.299 100.529ZM137.335 67.2834L107.318 67.7364C108.607 82.2918 137.718 82.5184 137.335 67.2834ZM137.335 36.1337C137.335 36.1951 137.359 36.2543 137.401 36.2991C137.443 36.3438 137.5 36.3708 137.562 36.3744C142.362 36.4877 152.514 36.785 156.351 36.2611C156.662 36.2611 156.563 35.7372 156.351 35.7372C150.928 35.7372 143.098 35.7372 137.633 35.893C137.597 35.8843 137.559 35.8839 137.523 35.8921C137.487 35.9002 137.453 35.9165 137.424 35.9398C137.396 35.9631 137.373 35.9927 137.357 36.0263C137.342 36.06 137.334 36.0967 137.335 36.1337ZM96.2743 14.8953C96.6708 14.8953 96.5009 14.3289 96.1752 14.2723C86.4197 14.5555 75.8005 14.7678 66.2857 14.9802C66.2539 14.9853 66.2234 14.9968 66.196 15.0139C66.1687 15.031 66.1451 15.0534 66.1266 15.0799C66.1081 15.1063 66.0951 15.1361 66.0884 15.1677C66.0817 15.1992 66.0814 15.2317 66.0875 15.2634C66.0957 15.313 66.1192 15.3588 66.1547 15.3944C66.1903 15.4299 66.2361 15.4534 66.2857 15.4616C73.2094 15.9572 87.2834 15.2068 96.2743 14.8953ZM101.726 11.6529C102.051 11.6529 102.15 11.0865 101.726 11.044C98.5539 10.6618 67.2768 11.1715 65.0963 11.6529C64.884 11.6529 64.8981 12.0776 65.0963 12.0776C73.1245 12.0635 92.3665 11.5113 101.726 11.6529ZM40.7713 113.031C41.8621 111.013 42.6991 108.868 43.2633 106.645C43.5269 105.881 43.5872 105.062 43.4382 104.267C43.2893 103.473 42.9362 102.731 42.4137 102.114C42.9276 100.821 43.1919 99.4423 43.1925 98.0507C42.9093 95.7428 40.4598 95.8844 39.143 97.6543C33.8334 104.734 27.9716 116.061 28.1415 124.769C28.0424 125.179 28.2548 125.646 28.6229 125.307C34.909 119.079 39.5588 111.394 42.1589 102.936C43.9287 105.569 41.196 110.114 40.1766 112.776C40.0492 113.13 40.5872 113.342 40.7713 113.031ZM28.6795 124.188C28.7834 122.617 29.0011 121.055 29.3309 119.516L31.5113 121.087C30.591 122.107 29.6424 123.169 28.6795 124.188ZM41.8332 101.534C40.8744 100.729 39.7229 100.188 38.4917 99.9622C38.9648 99.0979 39.5348 98.2904 40.1908 97.5552C40.8279 96.9605 42.0456 96.7198 42.4137 97.7251C42.5387 99.0139 42.3391 100.314 41.8332 101.505V101.534ZM77.8677 29.4082C77.2447 29.663 73.62 35.0718 72.9545 36.0204C72.1307 34.9257 71.1802 33.9324 70.1228 33.0612C70.0637 33.0338 69.9967 33.0288 69.9343 33.047C69.8718 33.0652 69.818 33.1055 69.7829 33.1603C69.7623 33.2151 69.7623 33.2755 69.7829 33.3302C70.5903 34.6522 71.5399 35.8819 72.6147 36.9974C72.6532 37.0399 72.7002 37.0739 72.7526 37.0972C72.8051 37.1204 72.8618 37.1324 72.9192 37.1324C72.9765 37.1324 73.0332 37.1204 73.0857 37.0972C73.1381 37.0739 73.1851 37.0399 73.2236 36.9974V36.9266L77.8677 30.5834C78.519 29.6631 78.3349 29.1675 77.8677 29.4082ZM162.821 21.9747C163.119 21.9747 163.175 21.4084 162.821 21.3659C153.987 20.9266 145.134 21.0543 136.316 21.7482C136.018 21.7482 136.047 22.2721 136.316 22.2579C142.999 22.2013 155.529 22.4137 162.821 21.9747Z" fill="#4F4CC7"/>
    <path d="M77.8786 37.9943C78.4449 37.7678 77.3122 33.5484 77.1564 32.8829C77.1456 32.8241 77.1123 32.7719 77.0636 32.7373C77.0148 32.7027 76.9545 32.6886 76.8954 32.6978C76.8364 32.707 76.7833 32.7389 76.7474 32.7867C76.7115 32.8345 76.6957 32.8944 76.7034 32.9537C76.8733 34.4687 77.0432 35.9979 77.3264 37.4846C74.9618 37.6686 72.8238 37.6545 70.5159 37.7536C70.0911 35.9129 69.723 33.5059 69.1 31.6794C70.8809 31.8291 72.6712 31.8291 74.4521 31.6794C75.6273 31.6794 75.5423 30.9431 74.537 30.9573C73.9424 30.9573 68.8735 30.8582 68.8735 31.467C68.208 31.467 69.6097 37.3996 69.6947 37.7961C69.7093 37.8667 69.746 37.9308 69.7994 37.9791C69.8529 38.0275 69.9203 38.0576 69.992 38.0651C70.1619 38.8014 77.6095 38.6881 77.8786 37.9943ZM163.625 33.0245C163.613 32.9695 163.582 32.9202 163.539 32.8843C163.495 32.8484 163.441 32.828 163.384 32.8263C154.804 32.5997 145.629 33.0104 136.935 32.9962C136.681 32.9962 136.666 33.421 136.935 33.4493C144.553 33.959 156.333 34.2705 163.441 33.336C163.505 33.3163 163.559 33.2734 163.593 33.2158C163.627 33.1582 163.639 33.09 163.625 33.0245ZM70.1903 27.7574C72.1764 27.8128 74.164 27.7229 76.137 27.4884C77.3688 27.7999 75.4857 20.0691 75.2592 19.7151C75.2293 19.6484 75.1788 19.5931 75.115 19.5574C75.0512 19.5217 74.9776 19.5075 74.9052 19.5169C73.6309 19.5169 67.7124 19.5169 66.8771 19.701C65.8576 18.8797 67.3443 25.8601 67.5567 26.6955C67.9673 28.0972 68.8735 27.7574 70.1903 27.7574ZM67.047 20.1824C69.6595 20.5014 72.2987 20.5394 74.9193 20.2956L75.8255 26.8371L68.4062 27.2193C68.4629 26.7379 67.2169 21.1168 67.047 20.1824ZM156.914 24.9539C156.989 24.9539 157.061 24.9241 157.114 24.871C157.167 24.8179 157.197 24.7458 157.197 24.6707C157.197 24.5956 157.167 24.5236 157.114 24.4705C157.061 24.4174 156.989 24.3876 156.914 24.3876C155.158 24.0336 140.065 24.5716 136.935 24.8406C136.695 24.8406 136.695 25.2513 136.935 25.2654C138.635 25.3362 155.229 25.3787 156.914 24.9539ZM38.0211 69.8661C38.2902 69.8661 40.2866 68.7334 40.7538 70.574C41.4051 73.0943 43.9537 71.5793 44.3643 69.6537C44.8882 67.275 42.6228 65.406 39.9468 65.406C34.5097 65.406 35.7557 70.1209 38.0211 69.8661ZM39.9468 65.9582C43.0051 66.0573 44.8882 68.9457 43.0334 70.6448C41.4476 72.0607 41.6175 70.0218 40.8529 69.2289C39.3238 67.813 38.1061 69.5263 37.2424 68.8042C35.4725 67.3883 38.8565 65.8732 39.9468 65.9582ZM73.107 42.8933C70.884 42.8933 70.7991 42.5252 71.0823 44.6915C71.1672 45.3003 71.6061 49.6046 72.3424 49.6471C72.4982 50.3267 78.8555 50.086 79.6626 49.8453C80.7528 49.8453 79.6626 46.4897 79.6626 46.1074C78.7281 41.1801 79.8891 42.7092 73.107 42.8933ZM72.6964 49.3214C72.3424 47.5374 72.0734 45.1729 71.5637 43.4738C73.882 43.7004 76.2202 43.6146 78.5157 43.2189C78.6598 45.1903 78.9676 47.1463 79.436 49.0666C77.2272 49.1657 74.9335 49.279 72.6964 49.3214ZM165.848 10.8233C163.243 10.5826 125.722 10.8233 120.964 11.1914C120.903 11.2019 120.848 11.2358 120.811 11.2859C120.774 11.3361 120.758 11.3987 120.766 11.4605C120.776 11.5092 120.8 11.554 120.835 11.5893C120.871 11.6245 120.915 11.6486 120.964 11.6587C124.999 11.8711 162.96 11.7719 165.848 11.4463C165.931 11.4463 166.01 11.4135 166.068 11.3551C166.127 11.2966 166.16 11.2174 166.16 11.1348C166.16 11.0522 166.127 10.973 166.068 10.9145C166.01 10.8561 165.931 10.8233 165.848 10.8233ZM101.949 21.2301C102.274 21.1593 102.161 20.7204 101.878 20.6638L80.3705 21.2018C80.3393 21.2051 80.3091 21.2149 80.2818 21.2306C80.2545 21.2462 80.2308 21.2674 80.2122 21.2927C80.1936 21.318 80.1804 21.3469 80.1735 21.3775C80.1666 21.4082 80.1662 21.44 80.1723 21.4708C80.1805 21.5204 80.204 21.5662 80.2396 21.6018C80.2751 21.6373 80.3209 21.6608 80.3705 21.669C85.7651 22.0655 97.2621 22.1788 101.949 21.2301ZM187.228 61.0309C187.327 62.107 188.403 72.8395 188.8 73.6182C191.631 79.1402 202.052 79.2818 202.279 71.1121C202.675 67.7139 204.049 57.9584 203.511 55.5372C203.667 54.7443 204.488 51.2895 204.644 49.463C204.644 49.1657 205.21 41.0809 204.077 42.3128C202.565 44.3256 201.225 46.4616 200.07 48.6985C199.872 49.5621 199.674 50.4117 199.461 51.2612C198.835 51.025 198.184 50.8588 197.522 50.7657C197.522 50.1852 197.097 47.3534 196.899 46.2206C195.922 44.3233 194.916 42.6243 194.067 40.6562C192.863 37.697 192.835 37.6403 192.495 40.8969C191.928 44.2143 191.928 47.604 192.495 50.9214C186.081 52.2523 186.747 56.0328 187.214 61.0309H187.228ZM202.718 45.4561C202.891 45.6236 203.098 45.752 203.326 45.8326C203.553 45.9132 203.795 45.9441 204.035 45.9233V49.4914C203.438 49.5493 202.836 49.4863 202.264 49.3063C201.693 49.1263 201.163 48.8329 200.707 48.4436C201.401 47.4666 202.123 46.4613 202.718 45.4561ZM200.679 49.1799C201.617 49.8467 202.742 50.1987 203.893 50.1851C203.426 52.8187 202.959 55.4381 202.59 58.0858C202.109 59.8132 199.759 60.4362 198.23 60.6486C199.164 56.9106 199.872 52.8895 200.679 49.1374V49.1799ZM197.847 59.6292C197.778 59.9846 197.731 60.344 197.706 60.7052L194.251 60.7902L192.835 47.4525C193.475 47.6458 194.153 47.6797 194.809 47.5514C195.466 47.4231 196.081 47.1364 196.601 46.7162C196.601 46.7162 197.522 59.4168 197.847 59.5867V59.6292ZM193.005 42.9216C193.222 42.9783 193.448 42.9899 193.67 42.9558C193.891 42.9217 194.103 42.8426 194.293 42.7234L196.233 46.2065C195.725 46.5854 195.135 46.8413 194.511 46.9543C193.887 47.0673 193.246 47.0343 192.637 46.8578C192.612 45.5221 192.736 44.1877 193.005 42.8791V42.9216ZM202.817 59.2327C202.562 62.8008 202.109 70.3333 201.189 73.7031C199.56 78.0783 192.467 78.1491 189.338 73.7031C188.743 68.79 188.148 63.7919 187.568 58.9495C190.216 62.7866 200.509 62.3194 202.817 59.1902V59.2327Z" fill="#4F4CC7"/>
    <path d="M12.4782 74.8399C14.6332 75.9653 16.9083 76.844 19.2604 77.4593C14.7437 83.675 27.6708 92.5385 39.4935 87.8094C44.9164 85.6431 50.3392 78.7619 45.0296 73.9903C50.6932 69.417 52.6896 62.8189 52.4489 55.5837C52.0808 44.4265 47.1535 36.2143 35.8688 33.5666C30.3092 32.2655 24.4834 32.7156 19.1896 34.855L16.9949 31.0604C17.6887 30.6923 18.4108 30.3383 19.1188 30.0268C20.9878 29.3897 20.4214 28.0163 19.317 28.4269C-2.3745 36.3417 -7.38676 64.872 12.4782 74.8399ZM19.4303 76.4681C19.0338 75.0522 20.0957 73.6363 19.6002 72.093C18.4675 68.4259 13.7242 70.5497 12.5207 68.0719C11.2039 65.3675 14.7153 64.9003 15.4233 62.9605C15.5485 62.6209 15.5804 62.254 15.5156 61.8979C15.4509 61.5418 15.2919 61.2096 15.0552 60.9358C13.0163 58.3872 8.30134 61.0774 9.64644 55.1306C10.6659 50.6422 14.9985 48.5184 18.1418 50.5006C21.2851 52.4829 23.1682 53.8138 27.1469 51.4918C33.7733 47.5981 32.9521 55.7395 30.9273 58.2031C29.8512 59.534 27.8973 59.4632 26.3965 60.0296C21.4975 61.8703 21.5258 65.1693 25.4053 65.9764C26.9062 66.2879 28.8318 66.1463 30.007 67.279C33.1928 70.3798 26.6089 77.0062 24.5275 78.0964C23.4089 77.8699 19.9966 77.2044 19.4303 76.4681ZM37.398 34.8125C45.7376 37.4036 50.141 43.4353 51.3304 52.0581C51.8957 55.7794 51.7564 59.5738 50.9198 63.2437C50.5799 63.7109 45.7942 65.0277 44.2509 63.0455C43.655 62.2443 43.2572 61.3135 43.0899 60.3292C42.9225 59.3449 42.9905 58.3349 43.2881 57.3819C44.2084 55.0032 47.3375 52.9077 46.3747 50.4723C45.0438 47.1025 41.1501 51.7041 39.5076 50.7555C37.044 49.3396 41.6598 46.6211 36.3927 45.6441C34.4529 45.2902 32.8671 46.0831 31.437 43.9451C28.1663 39.0461 36.6759 34.7984 37.398 34.7701V34.8125ZM21.2426 41.0849C21.3037 41.1815 21.3963 41.2539 21.5046 41.29C21.613 41.3262 21.7305 41.3237 21.8373 41.2832C21.9599 41.2328 22.0581 41.1366 22.111 41.0149C22.1639 40.8933 22.1673 40.7559 22.1205 40.6319L19.5435 35.6054C24.7952 33.4996 30.5771 33.1033 36.067 34.4727C28.9876 36.8089 28.1522 44.7946 33.2352 46.168C34.3113 46.4653 39.1254 46.0406 38.29 48.0936C38.1204 48.4267 38.0253 48.7926 38.0113 49.1661C37.9973 49.5396 38.0647 49.9117 38.2088 50.2565C38.353 50.6013 38.5704 50.9107 38.846 51.1631C39.1216 51.4155 39.4488 51.605 39.805 51.7183C41.7872 52.0723 43.9111 49.0847 45.3694 50.3024C47.9181 52.4263 41.2634 55.7111 42.3961 60.4402C43.2456 64.0649 44.7465 65.2118 48.4278 64.6879C49.2342 64.6185 50.0163 64.3771 50.7215 63.9799C47.6774 74.6416 36.2936 79.5548 25.8867 78.2663C27.9823 76.3407 31.2388 72.5178 31.5503 69.771C32.0317 64.9003 26.4389 65.8772 24.3859 64.8012C21.5541 63.3853 25.6036 60.9216 28.1947 60.3553C29.0437 60.2155 29.8655 59.9431 30.63 59.5482C34.8777 56.943 33.7025 46.4653 27.5433 50.3307C22.2762 53.6298 20.6479 50.8263 18.1984 49.5662C14.2764 47.5697 8.89602 50.713 8.627 56.6456C8.47125 60.6809 11.7986 59.8172 13.7384 60.8933C14.086 61.0237 14.3763 61.273 14.5577 61.5969C14.7391 61.9209 14.8 62.2986 14.7295 62.6632C14.2764 64.0791 12.2234 64.3622 11.657 66.0755C11.4331 66.7437 11.4412 67.4679 11.6802 68.1309C11.9192 68.7939 12.375 69.3568 12.9738 69.7285C14.8286 70.8046 18.1135 69.8701 18.8922 72.4328C19.2745 73.6788 18.5241 74.9531 18.6091 76.2133C14.9966 74.9149 11.8156 72.6389 9.42064 69.6389C7.02566 66.639 5.51077 63.0329 5.04479 59.2226C3.77048 49.5945 9.64644 40.2354 18.2834 36.1435C19.1754 37.7859 20.294 39.485 21.2426 41.0849ZM8.49957 37.3045C10.6251 35.1004 13.0744 33.2336 15.7631 31.7684C16.5523 32.9791 17.2754 34.2317 17.9294 35.5205C13.4857 37.5849 9.78735 40.9706 7.33942 45.2152C4.89149 49.4598 3.81324 54.3565 4.25189 59.2367C4.54705 62.0339 5.4238 64.7384 6.82585 67.1768C8.2279 69.6152 10.1243 71.7334 12.3933 73.3956C-1.14267 65.8772 -1.70902 48.1503 8.49957 37.3045ZM159.618 47.2866C158.4 47.0175 140.192 46.9326 137.615 47.2866C137.551 47.2866 137.49 47.3119 137.445 47.3571C137.4 47.4022 137.374 47.4634 137.374 47.5273C137.374 47.5911 137.4 47.6523 137.445 47.6975C137.49 47.7426 137.551 47.768 137.615 47.768C138.592 47.9096 157.622 48.2352 159.618 47.768C159.684 47.7533 159.743 47.7165 159.785 47.6638C159.828 47.611 159.851 47.5454 159.851 47.4777C159.851 47.4101 159.828 47.3444 159.785 47.2917C159.743 47.2389 159.684 47.2021 159.618 47.1875V47.2866ZM165.664 14.721C152 14.8768 134.344 14.4095 122.026 14.721C121.686 14.721 121.714 15.2024 122.026 15.2307C127.194 15.7971 161.501 15.7546 165.664 15.2307C165.704 15.2273 165.744 15.2156 165.779 15.1964C165.815 15.1772 165.847 15.1508 165.872 15.119C165.897 15.0872 165.915 15.0505 165.926 15.0113C165.936 14.972 165.939 14.9311 165.933 14.8909C165.91 14.8389 165.872 14.7949 165.824 14.7646C165.776 14.7343 165.72 14.7191 165.664 14.721ZM164.149 44.2141C155.866 44.03 145.516 44.5397 136.695 44.3132C136.44 44.3132 136.383 44.6813 136.695 44.7096C142.117 45.2477 159.094 45.7857 164.205 44.7946C164.474 44.7238 164.503 44.2141 164.149 44.2141Z" fill="#2A2A2A"/>
</svg>
