<svg width="39" height="17" viewBox="0 0 39 17" fill="none"
    xmlns="http://www.w3.org/2000/svg">
    <path d="M37.8928 2.52854C37.9548 2.78782 37.9661 3.05274 37.9858 3.31484C38.0027 3.56284 38.014 3.81086 38.0281 4.06169C38.0506 4.35479 38.076 4.64505 38.107 4.93533C38.1662 5.51871 38.1521 6.09648 38.0929 6.67986C38.0619 7.0096 38.0168 7.34215 37.9858 7.67189C37.9604 8.00162 37.9351 8.33136 37.9125 8.65828C37.8703 9.46713 37.8167 10.276 37.7519 11.0848C37.7237 11.5076 37.6983 11.9331 37.6673 12.353C37.6645 12.3671 37.6645 12.3841 37.6645 12.401C37.6617 12.4038 37.6646 12.4066 37.6646 12.4123C37.6364 12.9026 37.6307 13.3986 37.6053 13.8918C37.5856 14.2667 37.5716 14.6415 37.5377 15.0135C37.4926 15.4926 37.4053 16.1662 36.8078 16.2282C36.6556 16.2451 36.509 16.2169 36.3794 16.1493C36.3174 16.3297 36.2159 16.4818 36.0468 16.5833C35.889 16.6735 35.6974 16.696 35.517 16.6509C35.2887 16.5918 35.0999 16.4029 35.021 16.1775C34.8942 16.1127 34.7674 16.0535 34.6405 15.9886C34.3192 15.8365 33.9895 15.6927 33.75 15.4194C33.6316 15.2841 33.5301 15.1375 33.4202 14.9994C33.4174 14.9966 33.4146 14.9938 33.4117 14.991C33.1496 14.8247 32.8735 14.6782 32.6114 14.5119C32.3155 14.323 32.0392 14.1258 31.7912 13.8834C31.6701 13.7622 31.546 13.6438 31.422 13.5255C31.329 13.4494 31.2332 13.3761 31.1374 13.3085C30.7569 13.0689 30.3821 12.8237 30.0073 12.5673C29.8692 12.4855 29.7339 12.4066 29.593 12.3333C29.3421 12.2178 29.0885 12.105 28.849 11.9613C28.5389 11.7753 28.2797 11.516 28.0288 11.2539C27.7555 10.9693 27.4962 10.6762 27.2482 10.3718C27.0227 10.0956 26.8254 9.7969 26.631 9.50098C26.4873 9.27834 26.352 9.0585 26.3463 8.78231C26.3407 8.56248 26.4534 8.36519 26.5971 8.21019C26.676 8.12564 26.7691 8.06644 26.8649 8.00444C26.9917 7.92271 27.1185 7.84662 27.2453 7.76489C27.5553 7.57325 27.8654 7.38724 28.181 7.20124C28.4854 7.02651 28.7926 6.86589 29.0942 6.6827C29.407 6.49388 29.717 6.29657 30.0298 6.10774C30.6301 5.73855 31.2445 5.38911 31.8589 5.04528C32.1886 4.85646 32.5184 4.66763 32.8425 4.4788C33.1215 4.31253 33.392 4.13213 33.6682 3.95739C34.5278 3.3571 35.3789 2.74838 36.2639 2.18472C36.526 2.01844 36.8106 1.89726 37.1206 1.90289C37.3376 1.90571 37.5349 1.99587 37.6814 2.14242C37.7829 2.24952 37.8562 2.37917 37.8928 2.52854ZM36.3484 10.989L36.3484 10.9834L36.3512 10.9806C36.3794 10.5522 36.4132 10.1238 36.4442 9.69823C36.4724 9.15712 36.5034 8.61321 36.5457 8.07491C36.5936 7.42389 36.6781 6.77568 36.7289 6.12747C36.7401 5.92456 36.743 5.71885 36.7373 5.51593C36.712 5.19746 36.6781 4.8818 36.6528 4.56333C36.6302 4.25896 36.6105 3.95176 36.5936 3.64739C36.5626 3.66712 36.5288 3.68967 36.4978 3.7094C35.8468 4.14624 35.2098 4.6028 34.5672 5.04808C33.9585 5.47083 33.3103 5.84286 32.6677 6.20923C31.997 6.58688 31.329 6.96731 30.6752 7.36751C30.3708 7.55351 30.0664 7.74516 29.7621 7.93116C29.4605 8.11435 29.1449 8.27782 28.8377 8.45538C28.5474 8.62166 28.2599 8.79075 27.9753 8.96831C28.2064 9.29523 28.4459 9.60805 28.7052 9.91242C28.9194 10.1435 29.1336 10.3803 29.3647 10.5944C29.4154 10.6339 29.4662 10.6734 29.5197 10.7156C29.6043 10.772 29.6888 10.8171 29.779 10.8622C30.0496 10.9919 30.3258 11.1046 30.5794 11.2624C30.8105 11.4033 31.0359 11.5611 31.2614 11.7189C31.532 11.8937 31.8081 12.0571 32.0759 12.2403C32.3859 12.4545 32.6367 12.7392 32.9073 12.9928C32.9862 13.0605 33.0707 13.1225 33.1553 13.1845C33.5189 13.4128 33.8993 13.6185 34.2516 13.858C34.4743 14.0131 34.6067 14.247 34.7786 14.4527C34.7927 14.4668 34.8068 14.4809 34.8209 14.4949C34.835 14.5034 34.8462 14.5147 34.8603 14.5231C34.8942 14.54 34.928 14.5626 34.9646 14.5767C34.9364 14.5654 34.9111 14.5513 34.8885 14.54C35.2324 14.7035 35.5677 14.8754 35.9059 15.0502C35.9707 15.0868 36.0384 15.1206 36.1004 15.1657C36.1342 14.9572 36.1568 14.743 36.1709 14.5316C36.1849 14.185 36.2075 13.8411 36.2216 13.4945C36.2357 13.1027 36.2413 12.7082 36.2667 12.3221C36.2667 12.3277 36.2667 12.3334 36.2667 12.339C36.2892 11.8937 36.3174 11.4428 36.3484 10.989Z" fill="black"/>
    <path d="M37.6673 12.3643C37.6702 12.3615 37.6702 12.3615 37.6673 12.3643V12.3643Z" fill="black"/>
    <path d="M36.3484 10.9665C36.3456 10.9637 36.3484 10.9608 36.3484 10.9552C36.3484 10.9496 36.3512 10.9467 36.3484 10.9439C36.3512 10.9524 36.3484 10.9608 36.3484 10.9665Z" fill="black"/>
    <path d="M36.3484 10.9778C36.3484 10.9778 36.3484 10.9721 36.3484 10.9665C36.3484 10.9665 36.3484 10.9721 36.3484 10.9778Z" fill="black"/>
    <path d="M36.3456 10.9919C36.3456 10.9862 36.3456 10.9862 36.3456 10.9862C36.3484 10.989 36.3456 10.9919 36.3456 10.9919Z" fill="black"/>
    <path d="M23.714 0.885492C23.7197 0.919311 23.7282 0.950324 23.7338 0.984141C23.7986 1.13351 23.8212 1.30261 23.7986 1.47734C23.7676 1.72253 23.7169 1.96489 23.6661 2.20727C23.5731 2.66664 23.4491 3.11757 23.3449 3.57695C23.3364 3.63613 23.328 3.70096 23.3195 3.76578C23.3082 4.16598 23.3308 4.56618 23.3251 4.96637C23.3167 5.42012 23.2744 5.87385 23.2322 6.32759C23.1532 7.17307 23.0489 8.01572 22.9785 8.86402C22.9757 9.10358 22.9728 9.34314 22.9672 9.57988C22.9644 9.83634 22.9982 10.1013 23.0123 10.3577C23.0123 10.3296 23.0095 10.2985 23.0067 10.2675C23.0546 10.7495 23.0997 11.2342 23.1448 11.719C23.1983 12.2967 23.2068 12.8857 23.3026 13.455C23.3082 13.4832 23.3167 13.5142 23.3251 13.5452C23.4801 13.7678 23.5224 14.0581 23.3702 14.3062C23.2575 14.4865 23.0828 14.6049 22.8911 14.6444C22.5783 14.8501 22.1781 14.7655 21.9385 14.4809C21.9244 14.4668 21.916 14.4527 21.9019 14.4386C21.6257 14.1342 21.3495 13.8355 21.0564 13.548C20.6872 13.2408 20.2983 12.959 19.9235 12.6518C19.7516 12.5081 19.5684 12.3756 19.3908 12.2432C19.1822 12.0853 18.9822 11.919 18.7849 11.7443C18.6412 11.6231 18.5002 11.5048 18.3452 11.3948C18.2043 11.3047 18.0578 11.2314 17.9112 11.1525C17.9394 11.1638 17.9648 11.1779 17.9958 11.1919C17.6519 11.0285 17.3109 10.8679 16.9699 10.7016C16.9248 10.679 16.8797 10.6565 16.8318 10.6311C16.8375 10.6368 16.8459 10.6396 16.8515 10.6396C16.7698 10.5973 16.6853 10.5578 16.6007 10.5184C16.6289 10.5296 16.6543 10.5438 16.6853 10.5578C16.5444 10.4902 16.4035 10.4226 16.2626 10.3549C16.2907 10.3662 16.3161 10.3803 16.3471 10.3944C16.0004 10.2281 15.6735 10.0364 15.3691 9.79971C15.1042 9.59679 14.8788 9.35442 14.6533 9.10641C14.4645 8.89504 14.2785 8.68085 14.0953 8.46947C14.0333 8.40184 13.9685 8.33703 13.9008 8.27503C13.7515 8.13693 13.6641 7.94248 13.6613 7.73675C13.6613 7.47183 13.8106 7.24916 14.0276 7.11106C14.0558 7.09415 14.0868 7.07444 14.115 7.05753C14.2334 6.96171 14.3715 6.87996 14.4955 6.79542C14.9098 6.50513 15.3184 6.20923 15.7412 5.9274C15.713 5.94431 15.6904 5.96122 15.6622 5.97813C16.1385 5.64839 16.5697 5.27355 17.0178 4.91563C17.511 4.52389 18.0352 4.17444 18.5623 3.82779C18.9484 3.56006 19.326 3.27822 19.6811 2.9682C19.6727 2.97666 19.6642 2.98512 19.6557 2.99358C19.667 2.9823 19.6783 2.97102 19.6896 2.96538C19.7008 2.95411 19.7149 2.94002 19.7262 2.93439C19.7206 2.94002 19.7121 2.94848 19.7037 2.9513C20.0729 2.62156 20.4251 2.2749 20.7746 1.9198C20.9465 1.74788 21.1184 1.57032 21.2875 1.39558C21.3974 1.28567 21.5045 1.17861 21.6116 1.06588C21.7356 0.936242 21.8568 0.809408 22.009 0.719223C22.0823 0.674131 22.1668 0.645954 22.2486 0.637499C22.536 0.451493 22.8517 0.276759 23.2011 0.37258C23.3223 0.403582 23.4407 0.471201 23.5337 0.564205C23.6295 0.660026 23.6915 0.767125 23.714 0.885492ZM17.8831 9.57989C18.2043 9.73208 18.5312 9.88425 18.8441 10.0505C19.2245 10.2506 19.5458 10.5325 19.8643 10.8171C20.1349 11.0369 20.4167 11.2399 20.6872 11.454C20.9521 11.6626 21.2143 11.8796 21.482 12.0853C21.5835 12.1642 21.6877 12.2403 21.7835 12.3192C21.7666 12.1107 21.7497 11.9022 21.7328 11.6936C21.699 11.3272 21.6652 10.9608 21.6285 10.5973C21.5947 10.2591 21.5806 9.91807 21.5609 9.5827C21.5496 9.39669 21.5665 9.1994 21.5693 9.01058C21.5722 8.8443 21.5806 8.67803 21.5947 8.51176C21.6229 8.16229 21.6567 7.81285 21.6934 7.46056C21.7666 6.79545 21.8371 6.12748 21.8878 5.45673C21.9047 5.13545 21.916 4.81418 21.9132 4.49008C21.9104 4.17162 21.8963 3.85878 21.9245 3.54313C21.9555 3.20775 22.0569 2.88083 22.1415 2.55955C22.1133 2.58773 22.0851 2.61593 22.0569 2.64411C21.8145 2.88649 21.5722 3.13448 21.3242 3.37122C20.8817 3.79678 20.4392 4.21106 19.9488 4.58307C19.5796 4.86772 19.1822 5.11854 18.7933 5.37219C18.5848 5.51874 18.3678 5.65684 18.1705 5.81466C17.9394 5.99503 17.7083 6.18105 17.4829 6.37269C17.1052 6.68834 16.7135 6.97861 16.302 7.2548C16.3076 7.24916 16.3161 7.24635 16.3189 7.24353C16.0202 7.44645 15.7327 7.66064 15.434 7.8692C15.4396 7.87483 15.4424 7.87763 15.448 7.88327C15.4537 7.8889 15.4622 7.89738 15.4678 7.90301C15.465 7.9002 15.4621 7.89737 15.4565 7.89173C15.6763 8.13974 15.8962 8.38774 16.1357 8.61039C16.2259 8.68366 16.3189 8.75412 16.4147 8.82176C16.581 8.92604 16.7501 9.02187 16.9277 9.11487C17.0235 9.15996 17.1165 9.20787 17.2067 9.25296C17.2067 9.25296 17.2038 9.25014 17.201 9.24732C17.2123 9.25296 17.2264 9.26141 17.2405 9.26423C17.2433 9.26705 17.2489 9.26706 17.2546 9.2727C17.263 9.27551 17.2743 9.28114 17.2856 9.28678C17.2827 9.28396 17.2771 9.28396 17.2743 9.28114C17.2912 9.28678 17.3053 9.29525 17.3222 9.30089C17.418 9.34598 17.5195 9.39669 17.6153 9.44178C17.5899 9.42769 17.5617 9.41643 17.5336 9.39952C17.6547 9.46434 17.7675 9.52071 17.8831 9.57989Z" fill="black"/>
    <path d="M17.3278 9.30649C17.3363 9.30931 17.3447 9.31216 17.3504 9.31779C17.3419 9.31498 17.3363 9.30931 17.3278 9.30649Z" fill="black"/>
    <path d="M10.609 0.541644C10.7697 0.71356 10.8232 0.95878 10.8458 1.18988C10.9022 1.73663 10.9191 2.28336 10.9529 2.8301C10.9895 3.37967 10.9839 3.92642 10.9923 4.47599C11.0008 5.03682 11.0261 5.59765 11.0515 6.15849C11.0487 6.12749 11.0487 6.09929 11.0459 6.06829C11.1079 6.95323 11.1981 7.83254 11.3192 8.70903C11.3869 9.21068 11.463 9.70952 11.5363 10.2112C11.6039 10.679 11.649 11.1468 11.6659 11.6203C11.6772 11.9134 11.6575 12.2093 11.6518 12.5024C11.6687 12.5588 11.68 12.6208 11.6828 12.6856C11.6885 12.8604 11.6574 13.021 11.5785 13.1788C11.4545 13.4325 11.1417 13.5649 10.8768 13.5311C10.781 13.5198 10.6936 13.4888 10.6203 13.4437C10.5752 13.5565 10.502 13.6636 10.3921 13.7453C10.1102 13.9595 9.65365 13.9313 9.42537 13.6467C9.30418 13.5537 9.18018 13.4691 9.06182 13.3789C8.8589 13.2267 8.67289 13.0576 8.47561 12.8998C8.29524 12.7533 8.1036 12.618 7.91195 12.4884C7.71749 12.3559 7.53431 12.2121 7.34267 12.0712C6.93966 11.8204 6.51126 11.6231 6.09416 11.3977C5.62351 11.1412 5.1613 10.8706 4.69346 10.6114C4.22845 10.3549 3.76064 10.1013 3.28998 9.85607C2.92643 9.66725 2.57129 9.46995 2.2331 9.24449C1.84417 8.98521 1.50316 8.65547 1.12269 8.3821C1.09451 8.36519 1.06635 8.34827 1.03534 8.33418C1.02971 8.33418 1.02691 8.33139 1.02409 8.33421C0.75354 8.27785 0.519607 8.13974 0.409694 7.86637C0.299781 7.59863 0.373078 7.31681 0.519628 7.08007C0.722544 6.75879 1.02689 6.53895 1.31717 6.30503C1.72582 5.97529 2.17394 5.70757 2.63332 5.44547C3.08706 5.18337 3.53798 4.91279 3.97763 4.62533C4.11854 4.52387 4.25382 4.41679 4.38628 4.30688C4.72729 4.00532 5.06266 3.69249 5.41494 3.40785C5.77568 3.12038 6.15336 2.85546 6.53101 2.59054C6.93402 2.30589 7.33985 2.02972 7.74286 1.74507C8.09233 1.5027 8.42204 1.23495 8.7546 0.970028C8.86733 0.868571 8.97725 0.769943 9.08153 0.665666C9.26753 0.485297 9.45072 0.273916 9.69591 0.180913C9.96928 0.0766366 10.268 0.149918 10.4625 0.344378C10.5273 0.39229 10.5752 0.462733 10.609 0.541644ZM2.27821 7.48591C2.55722 7.71419 2.8334 7.93962 3.12932 8.14536C3.51825 8.38773 3.92973 8.59067 4.33838 8.80204C4.63148 8.95423 4.92177 9.11486 5.21205 9.27551C5.86026 9.63625 6.49718 10.0195 7.15948 10.3549C7.45821 10.5071 7.75975 10.6508 8.04158 10.8368C8.3375 11.0256 8.60526 11.2483 8.89555 11.4484C9.19428 11.657 9.46765 11.8909 9.74948 12.122C9.87066 12.2206 9.99748 12.3136 10.1187 12.4066C10.1609 12.4376 10.206 12.4714 10.2511 12.4996C10.2539 12.4517 10.2567 12.4038 10.2567 12.3587C10.268 12.043 10.2652 11.7246 10.2483 11.4033C10.1778 10.4366 10.0059 9.48123 9.87346 8.52583C9.77201 7.78181 9.70719 7.02932 9.65365 6.28248C9.6001 5.55254 9.58599 4.81698 9.58317 4.08704C9.58036 3.4473 9.54657 2.81039 9.51275 2.17346C9.41411 2.25519 9.31262 2.33408 9.21398 2.41581C8.85042 2.71173 8.45306 2.97384 8.06695 3.24158C7.68649 3.50931 7.30602 3.77142 6.92555 4.03916C6.56481 4.2928 6.22381 4.56616 5.89407 4.8508C5.64606 5.07627 5.39522 5.30455 5.13594 5.51874C4.87665 5.72729 4.59485 5.90766 4.31302 6.08239C4.04528 6.24867 3.77471 6.41775 3.50134 6.57275C3.22515 6.73058 2.94895 6.88278 2.68403 7.05188C2.51775 7.16743 2.35431 7.28579 2.19085 7.40979C2.2134 7.43234 2.24721 7.46054 2.27821 7.48591Z" fill="black"/>
    <path d="M35.6157 10.5043C35.8524 10.8199 35.7763 11.2511 35.4776 11.4935C35.2521 11.6795 35.0322 11.8655 34.8096 12.0543C34.7786 12.0853 34.742 12.1163 34.7081 12.1445C34.6743 12.2178 34.6264 12.2883 34.5644 12.3503C34.4461 12.4686 34.2939 12.5644 34.1332 12.6011C33.8909 12.6631 33.6316 12.5954 33.454 12.4179C33.2652 12.2291 33.1835 11.9049 33.299 11.6541C33.4653 11.2962 33.8063 11.051 34.1022 10.8002C34.2741 10.6565 34.4461 10.5127 34.6208 10.3718C34.8942 10.1492 35.3113 10.1999 35.5508 10.4395C35.5762 10.4592 35.5987 10.4817 35.6157 10.5043Z" fill="black"/>
    <path d="M35.2126 8.22996C34.8547 8.55969 34.4545 8.84714 34.0712 9.14024C33.702 9.41925 33.3047 9.67006 32.9157 9.92371C32.9439 9.9068 32.9665 9.88991 32.9947 9.873C32.8622 9.96037 32.7213 10.0449 32.586 10.1295C32.3634 10.2676 32.1407 10.4113 31.8927 10.5015C31.6898 10.5748 31.47 10.5691 31.2783 10.462C31.0669 10.3408 30.9091 10.0985 30.9204 9.85047C30.9289 9.65601 30.9937 9.48408 31.1318 9.34598C31.2163 9.26143 31.3206 9.20223 31.4277 9.16841C31.6954 9.03032 31.9519 8.86407 32.2055 8.70625C32.3915 8.58224 32.5775 8.45822 32.7636 8.33986C32.7382 8.35395 32.71 8.37084 32.6846 8.39056C33.2032 8.04674 33.6879 7.65782 34.1727 7.2689C34.1868 7.2548 34.198 7.24355 34.215 7.23227C34.4968 6.97299 34.9308 6.95045 35.2126 7.23227C35.4747 7.49437 35.4973 7.96786 35.2126 8.22996Z" fill="black"/>
    <path d="M32.2055 8.70625C32.2055 8.70625 32.2083 8.7034 32.2112 8.70058C32.2112 8.70621 32.2084 8.70343 32.2055 8.70625Z" fill="black"/>
    <path d="M21.0029 9.32906C20.9521 9.39106 20.9014 9.45869 20.8535 9.52351C20.8535 9.70388 20.7859 9.88425 20.6506 10.0195C20.38 10.2901 19.9235 10.2901 19.6529 10.0195C19.4725 9.83916 19.3654 9.60241 19.3993 9.34313C19.4415 9.00776 19.6783 8.73722 19.8812 8.47794C20.1179 8.17356 20.5604 8.10875 20.8704 8.34548C20.893 8.36239 20.9183 8.38211 20.9409 8.40466C21.1804 8.64421 21.2199 9.05005 21.0029 9.32906Z" fill="black"/>
    <path d="M21.451 5.20593C21.6877 5.51594 21.6172 5.95841 21.3157 6.19797C21.0282 6.42343 20.7464 6.65451 20.4646 6.88561C20.1996 7.12234 19.9404 7.36473 19.698 7.62401C19.7037 7.81002 19.6332 7.99883 19.4923 8.13975C19.3513 8.28066 19.1738 8.4075 18.9906 8.47232C18.5482 8.63296 18.1085 8.36803 18.0267 7.90865C17.9845 7.66909 18.0437 7.42956 18.1874 7.22947C18.3452 7.01528 18.5171 6.80388 18.706 6.60942C18.8779 6.43751 19.0413 6.26278 19.2245 6.10214C19.6275 5.74422 20.0418 5.39757 20.4674 5.06783C20.7464 4.85083 21.1551 4.8931 21.3974 5.13547C21.4143 5.15802 21.4369 5.18056 21.451 5.20593Z" fill="black"/>
    <path d="M9.17173 9.59398C9.07591 9.6898 8.97728 9.78279 8.88428 9.87579C8.76873 9.98571 8.65601 10.1097 8.52637 10.1999C8.346 10.3239 8.1346 10.3774 7.92041 10.3211C7.71468 10.2675 7.5174 10.1097 7.44694 9.90399C7.37085 9.69825 7.37648 9.47278 7.48921 9.28114C7.54558 9.18532 7.6217 9.10362 7.71188 9.04725C7.86971 8.9007 8.02187 8.74849 8.17687 8.59912C8.45024 8.33139 8.90118 8.32575 9.17455 8.59912C9.44229 8.86686 9.45074 9.32625 9.17173 9.59398Z" fill="black"/>
    <path d="M9.02801 6.15286C8.811 6.36986 8.57426 6.55588 8.32344 6.7278C8.3178 6.73343 8.30934 6.73625 8.30371 6.74188C8.28962 6.75034 8.27552 6.75879 8.26425 6.77006C8.27552 6.76442 8.28399 6.75597 8.29526 6.75033C8.15435 6.84051 8.01624 6.93353 7.87814 7.02653C7.90633 7.00962 7.92886 6.99268 7.95705 6.97577C7.91195 7.00395 7.86687 7.03779 7.82177 7.06598C7.84996 7.04907 7.87251 7.03218 7.9007 7.01527C7.61323 7.20691 7.31448 7.38725 7.02138 7.56762C6.81846 7.69162 6.61557 7.81565 6.41265 7.94529C6.12519 8.12003 5.84333 8.33419 5.51923 8.43283C5.24304 8.51738 4.9556 8.38777 4.77805 8.1764C4.77523 8.17358 4.77241 8.17075 4.76959 8.16793C4.60049 7.96502 4.5751 7.61835 4.72165 7.39289C4.76674 7.31961 4.81185 7.25762 4.87385 7.19562C4.97812 7.09135 5.1106 7.02655 5.24588 7.004C5.6038 6.78136 5.96737 6.56998 6.32529 6.34734C6.57611 6.19233 6.82411 6.03451 7.07494 5.87951C7.08058 5.87387 7.08901 5.87101 7.09183 5.86819C7.09465 5.86537 7.09747 5.86256 7.10592 5.85974C7.12001 5.85129 7.13129 5.84566 7.14256 5.83439C7.24965 5.76111 7.35959 5.69067 7.46669 5.62304C7.4836 5.61176 7.50049 5.60046 7.5174 5.58918C7.52022 5.58636 7.52302 5.58356 7.52302 5.58356C7.52584 5.58074 7.52867 5.57791 7.53148 5.5751C7.65267 5.49337 7.76822 5.40602 7.88377 5.31301C7.9345 5.26229 7.98806 5.21437 8.03879 5.16364C8.30934 4.89308 8.7659 4.8931 9.03645 5.16365C9.29855 5.42575 9.29856 5.87666 9.02801 6.15286Z" fill="black"/>
    <path d="M7.4554 5.61175C7.45258 5.61457 7.44977 5.61175 7.4554 5.61175C7.4554 5.61175 7.46105 5.6061 7.46387 5.60329C7.46105 5.6061 7.45822 5.60893 7.4554 5.61175Z" fill="black"/>
    <path d="M8.31498 6.73062C8.31779 6.7278 8.32062 6.72497 8.32062 6.72497C8.32625 6.71934 8.33471 6.71653 8.33753 6.71371C8.33189 6.71934 8.32061 6.72498 8.31498 6.73062Z" fill="black"/>
</svg>
