<svg width="20" height="17" viewBox="0 0 20 17" fill="none"
    xmlns="http://www.w3.org/2000/svg">
    <path fill-rule="evenodd" clip-rule="evenodd" d="M0.32698 2.13803C0 2.77976 0 3.61984 0 5.3V11.7C0 13.3802 0 14.2202 0.32698 14.862C0.614601 15.4265 1.07354 15.8854 1.63803 16.173C2.27976 16.5 3.11984 16.5 4.8 16.5L8.99998 16.5V15.7426C8.99998 15.2122 8.78928 14.7035 8.41423 14.3284L6 11.9142L5.70711 12.2071C5.42111 12.4931 4.99099 12.5787 4.61732 12.4239C4.24364 12.2691 4 11.9045 4 11.5V9.5C4 8.94772 4.44772 8.5 5 8.5H7C7.40446 8.5 7.7691 8.74364 7.92388 9.11732C8.07866 9.49099 7.9931 9.92111 7.70711 10.2071L7.41422 10.5L9 12.0858L9.00002 7.5H8.5C8.09554 7.5 7.7309 7.25636 7.57612 6.88268C7.42134 6.509 7.5069 6.07889 7.7929 5.79289L9.29292 4.29289C9.48046 4.10535 9.73481 4 10 4C10.2652 4 10.5196 4.10536 10.7071 4.2929L12.2071 5.7929C12.4931 6.0789 12.5787 6.50901 12.4239 6.88269C12.2691 7.25636 11.9045 7.5 11.5 7.5H11L11 12.0858L12.5858 10.5L12.2929 10.2071C12.0069 9.92111 11.9213 9.49099 12.0761 9.11732C12.2309 8.74364 12.5955 8.5 13 8.5H15C15.5523 8.5 16 8.94772 16 9.5V11.5C16 11.9045 15.7564 12.2691 15.3827 12.4239C15.009 12.5787 14.5789 12.4931 14.2929 12.2071L14 11.9142L11.5858 14.3284C11.2115 14.7027 11.0009 15.2099 11 15.7391L11 15.7426V16.5L15.2 16.5C16.8802 16.5 17.7202 16.5 18.362 16.173C18.9265 15.8854 19.3854 15.4265 19.673 14.862C20 14.2202 20 13.3802 20 11.7V5.3C20 3.61984 20 2.77976 19.673 2.13803C19.3854 1.57354 18.9265 1.1146 18.362 0.82698C17.7202 0.5 16.8802 0.5 15.2 0.5H4.8C3.11984 0.5 2.27976 0.5 1.63803 0.82698C1.07354 1.1146 0.614601 1.57354 0.32698 2.13803Z" fill="#222222"/>
</svg>
