<svg viewBox="0 0 14 30" fill="none"
    xmlns="http://www.w3.org/2000/svg">
    <path d="M8.34791 23.5102C8.35435 23.5109 8.36006 23.5113 8.36642 23.5108C8.3611 23.5105 8.35597 23.5104 8.35066 23.5102C8.34973 23.5102 8.34883 23.5102 8.34791 23.5102Z" fill="white"/>
    <path fill-rule="evenodd" clip-rule="evenodd" d="M0.704653 22.2261C0.537974 22.2146 0.37892 22.2167 0.242487 22.3297C0.234499 22.3365 0.226509 22.3434 0.219031 22.3502C0.212332 22.3563 0.206039 22.3624 0.200534 22.3684C0.0707252 22.5108 0.049334 22.7287 0.153299 22.897C0.204465 22.9798 0.284194 23.0487 0.359921 23.1141C0.382205 23.1334 0.404135 23.1523 0.424888 23.1712C0.482398 23.2237 0.539056 23.2761 0.595714 23.3286C0.652351 23.3811 0.708999 23.4336 0.76652 23.486C1.08822 23.7859 1.40159 24.095 1.70829 24.4113C1.82932 24.5392 1.94574 24.6704 2.06212 24.8016C2.18978 24.9455 2.31739 25.0894 2.451 25.2287C2.59528 25.3806 2.74528 25.5275 2.89551 25.6745C3.01524 25.7917 3.13513 25.9091 3.25239 26.0293C3.29304 26.0764 3.33353 26.12 3.37402 26.1636C3.44973 26.2468 3.52163 26.3343 3.59352 26.4217C3.65642 26.4981 3.71933 26.5746 3.78477 26.6482C3.93611 26.8197 4.09262 26.9891 4.24914 27.1584C4.55834 27.4904 4.86088 27.8297 5.1516 28.1783C5.3109 28.3703 5.47187 28.5605 5.62785 28.7561C5.6533 28.7882 5.67777 28.8219 5.70232 28.8556C5.74231 28.9105 5.78243 28.9656 5.82697 29.0145C5.94116 29.1386 6.10145 29.2012 6.26803 29.1725C6.43626 29.142 6.54611 29.0214 6.65594 28.9009C6.73419 28.8151 6.81407 28.7274 6.89596 28.6449C6.94454 28.599 6.99513 28.5581 7.04918 28.5172C7.14683 28.4486 7.24622 28.3837 7.34546 28.3189C7.50103 28.2173 7.65621 28.1159 7.80359 28.0013C8.01839 27.835 8.20894 27.6465 8.40058 27.457C8.43189 27.426 8.46321 27.395 8.49467 27.3641C8.70433 27.1566 8.90347 26.9395 9.1026 26.7224C9.29261 26.5153 9.48264 26.3082 9.68183 26.1093C9.85624 25.9477 10.0368 25.7927 10.2175 25.6376C10.3495 25.5244 10.4815 25.411 10.6113 25.295C10.8208 25.1083 11.0193 24.9102 11.2181 24.7118C11.3237 24.6063 11.4294 24.5008 11.5369 24.3969C11.6065 24.3318 11.6762 24.2666 11.7461 24.2017C11.8125 24.1401 11.8791 24.0787 11.9461 24.0176C12.0652 23.9089 12.186 23.7984 12.3144 23.7015C12.3253 23.6937 12.3365 23.6858 12.3477 23.6779C12.3768 23.6575 12.4066 23.6365 12.4345 23.6138C12.4907 23.577 12.5466 23.5409 12.6024 23.505C12.6951 23.4453 12.7873 23.3859 12.8794 23.3238C12.9557 23.273 13.0286 23.2225 13.1031 23.17L13.1133 23.1629C13.2391 23.0751 13.3723 22.9822 13.425 22.8316C13.5241 22.5541 13.3215 22.2592 13.0302 22.2377C12.9215 22.2322 12.8246 22.2542 12.7248 22.2903C12.7316 22.2865 12.7386 22.2862 12.7454 22.2824C12.7316 22.2865 12.7162 22.2925 12.7024 22.2966C12.6141 22.3164 12.5237 22.3276 12.4349 22.337C12.3163 22.3494 12.1965 22.3578 12.0766 22.3662C11.8639 22.3811 11.6503 22.3961 11.4407 22.4337C11.2952 22.46 11.1504 22.4904 11.0058 22.5208C10.8005 22.5639 10.5954 22.607 10.3886 22.6381C9.97567 22.673 9.56332 22.6816 9.15032 22.6762C9.14151 22.6749 9.13284 22.677 9.12404 22.6757L9.12222 22.674C8.98194 22.6666 8.84352 22.6607 8.7049 22.6514L8.65024 22.6479C8.52286 22.6396 8.39548 22.6314 8.26899 22.6418C8.21665 22.6349 8.163 22.6375 8.11117 22.6493C8.14497 22.5722 8.15542 22.4873 8.14262 22.4063C8.13101 22.2784 8.11133 22.1516 8.09172 22.0251C8.08115 21.9569 8.07058 21.8888 8.06128 21.8207C8.05823 21.7916 8.05471 21.7621 8.0512 21.7325L8.05093 21.7305C8.04739 21.7007 8.04385 21.6709 8.04074 21.6415C8.00805 21.3509 7.9875 21.0581 7.96877 20.7669L7.9634 20.695L7.96337 20.6944C7.94636 20.4667 7.92908 20.2356 7.92486 20.0081C7.94639 19.9441 7.95729 19.8772 7.95905 19.8019C7.96112 19.6199 7.81807 19.4394 7.64928 19.3825C7.52669 19.3409 7.40158 19.3205 7.27479 19.3019C7.2538 19.2985 7.23288 19.2951 7.21199 19.2918C7.1636 19.2839 7.11545 19.2761 7.06724 19.2692C7.04936 19.2667 7.03148 19.2643 7.01357 19.262C6.99035 19.2591 6.96709 19.2565 6.94377 19.2542C6.71894 19.2332 6.49607 19.2173 6.26887 19.2208C6.05214 19.2238 5.83557 19.2303 5.61866 19.2299C5.58902 19.229 5.55924 19.2282 5.52941 19.2274C5.44475 19.2252 5.35961 19.223 5.2753 19.2178C5.2662 19.2174 5.25711 19.2168 5.24805 19.2161C5.22646 19.2145 5.20493 19.2124 5.18343 19.2102C5.14101 19.206 5.09868 19.2018 5.05594 19.2017C4.9142 19.1995 4.76538 19.2344 4.67233 19.3402C4.65569 19.3585 4.64255 19.3765 4.62955 19.3981C4.59706 19.4521 4.57658 19.5003 4.56669 19.5515C4.51672 19.643 4.49895 19.7505 4.50894 19.8532C4.51338 19.9062 4.51855 19.959 4.5237 20.0117C4.52644 20.0397 4.52919 20.0676 4.53182 20.0956C4.53739 20.1551 4.54247 20.2147 4.54597 20.2747C4.55761 20.526 4.56743 20.7757 4.58604 21.0267C4.59666 21.1587 4.60729 21.2907 4.61814 21.4224C4.62835 21.5463 4.63875 21.67 4.64953 21.7933L4.6535 21.8359L4.65925 21.8962C4.67232 22.0326 4.6854 22.1689 4.69129 22.3047C4.6112 22.2641 4.51951 22.2485 4.42852 22.2705C4.39047 22.2793 4.35239 22.288 4.31416 22.2933C4.25847 22.2994 4.20429 22.3001 4.15011 22.3009C4.06487 22.2975 3.97945 22.2903 3.89404 22.2831C3.83722 22.2783 3.78042 22.2736 3.72366 22.2699C3.59436 22.2607 3.46306 22.2559 3.33219 22.2512C3.29787 22.2499 3.2636 22.2487 3.22941 22.2474C3.00149 22.2395 2.77514 22.249 2.54906 22.2584C2.43107 22.2634 2.31316 22.2683 2.19512 22.2707C2.20482 22.2712 2.21407 22.2712 2.22331 22.2712C2.23242 22.2712 2.24152 22.2712 2.25112 22.2717C2.22294 22.2719 2.195 22.2722 2.16719 22.2721C2.16214 22.272 2.15684 22.272 2.15181 22.272C2.13814 22.2718 2.12457 22.2716 2.11115 22.2712C2.11612 22.2714 2.12107 22.2716 2.12601 22.2718L2.06746 22.2714C1.98752 22.269 1.90782 22.2642 1.82814 22.2594C1.72627 22.2532 1.62449 22.2471 1.52237 22.2459C1.35266 22.2451 1.17948 22.2443 1.00628 22.2436C0.974332 22.2418 0.942561 22.2401 0.910919 22.2385C0.841824 22.2349 0.773266 22.2313 0.704653 22.2261ZM4.6898 23.0937C4.65549 23.1095 4.61883 23.1216 4.58031 23.131C4.35371 23.1852 4.12071 23.1768 3.89071 23.1577C3.61684 23.1354 3.34345 23.1235 3.07021 23.1152C2.93134 23.1152 2.79279 23.1219 2.65406 23.1285C2.50612 23.1357 2.35802 23.1428 2.20912 23.1418C2.21375 23.1419 2.21843 23.142 2.22322 23.1422C2.20292 23.1422 2.18306 23.1418 2.16318 23.1414C2.14367 23.141 2.12416 23.1406 2.10421 23.1407L2.1112 23.1404C2.00161 23.1392 1.89269 23.1334 1.78405 23.1276C1.74178 23.1254 1.69956 23.1231 1.65733 23.1212L1.82948 23.2881C2.07313 23.5269 2.31164 23.7677 2.54019 24.0195C2.61329 24.0999 2.6857 24.1811 2.75811 24.2623C2.87918 24.398 3.00024 24.5336 3.12453 24.6658C3.22441 24.7668 3.32537 24.8662 3.42622 24.9655C3.62918 25.1654 3.83162 25.3648 4.02365 25.5756C4.1141 25.6738 4.20086 25.7777 4.28736 25.8813C4.32942 25.9317 4.37144 25.982 4.41379 26.0315C4.54339 26.1864 4.6815 26.3357 4.81956 26.4849C5.11584 26.8017 5.40709 27.1241 5.68836 27.4574L5.69293 27.4628C5.82832 27.6225 5.9637 27.7823 6.09743 27.9438C6.11693 27.9683 6.13683 27.9923 6.15675 28.0163C6.17667 28.0403 6.19657 28.0643 6.21606 28.0888C6.25785 28.0466 6.29962 28.0045 6.3432 27.964C6.50866 27.8097 6.70189 27.687 6.89452 27.5646C6.98692 27.5059 7.07918 27.4473 7.16814 27.3853C7.23264 27.3363 7.29709 27.2862 7.3604 27.2352C7.41483 27.1913 7.46846 27.1467 7.52055 27.1014C7.75154 26.8773 7.9842 26.6514 8.20589 26.4155C8.32589 26.2875 8.44572 26.1561 8.56388 26.0264L8.85515 25.7069C9.08519 25.4618 9.3409 25.2436 9.59665 25.0254C9.83874 24.8148 10.0827 24.6059 10.3173 24.3852C10.6749 24.0258 11.0361 23.6663 11.4121 23.327C11.334 23.3394 11.2578 23.3569 11.1799 23.3728C11.1294 23.3837 11.0788 23.3951 11.0282 23.4066C10.841 23.4491 10.6527 23.4917 10.462 23.5075C10.0023 23.5497 9.5409 23.5571 9.0787 23.547C9.07991 23.5481 9.08185 23.5484 9.08301 23.5485C8.94657 23.5456 8.80877 23.5367 8.67073 23.5279C8.57825 23.5219 8.48572 23.516 8.39349 23.5118C8.39398 23.512 8.39447 23.5121 8.39499 23.5122C8.38802 23.5126 8.38101 23.5129 8.37571 23.5114C8.37251 23.5111 8.36944 23.5109 8.36642 23.5108C8.36879 23.5106 8.37125 23.5102 8.37388 23.5097C8.36787 23.51 8.36205 23.5101 8.35637 23.5101C8.35446 23.5101 8.35255 23.5102 8.35066 23.5102C8.34741 23.51 8.34408 23.5099 8.34062 23.5095L8.34469 23.5099C8.3458 23.51 8.34686 23.5101 8.34791 23.5102C8.34013 23.5104 8.33255 23.5108 8.32503 23.512C8.17574 23.5364 8.03435 23.5044 7.91566 23.3963C7.77567 23.2687 7.73805 23.0638 7.81081 22.8963C7.67535 22.9271 7.52658 22.8946 7.41731 22.795C7.3177 22.7042 7.28615 22.5958 7.27052 22.4693C7.27167 22.4805 7.27253 22.4916 7.27396 22.5032C7.26332 22.4226 7.25165 22.3421 7.23994 22.2616C7.22209 22.1386 7.20425 22.0157 7.19013 21.8925C7.14728 21.4957 7.11471 21.095 7.08747 20.6957C7.07557 20.5144 7.06553 20.3347 7.05544 20.155L6.92333 20.1349C6.8632 20.1297 6.80359 20.1239 6.74456 20.1182L6.6898 20.1129C6.66387 20.1104 6.63808 20.108 6.61241 20.1056C6.57085 20.1018 6.52823 20.1 6.48559 20.099C6.43634 20.0979 6.38702 20.0979 6.33918 20.0973C6.28808 20.0982 6.237 20.0993 6.18592 20.1004L6.18445 20.1005C5.98094 20.1048 5.7774 20.1093 5.57348 20.1047L5.40546 20.102L5.41578 20.2117C5.42326 20.3356 5.42911 20.4612 5.43475 20.5834C5.4492 20.8573 5.46711 21.1311 5.49019 21.4028C5.51279 21.6641 5.53537 21.9254 5.55629 22.1886C5.56282 22.2914 5.56934 22.3943 5.56188 22.4979C5.55461 22.6049 5.51494 22.6924 5.45764 22.7773C5.45632 22.7861 5.45479 22.7914 5.45344 22.8002C5.45897 23.0326 5.26708 23.2321 5.03671 23.2428C4.90037 23.2481 4.7747 23.1892 4.6898 23.0937Z" fill="white"/>
    <path d="M4.93103 10.1793C4.87565 10.1802 4.82031 10.1812 4.76501 10.1824C4.69069 10.184 4.61646 10.1859 4.54234 10.1886C4.36068 10.1935 4.20142 10.2289 4.07159 10.3713C3.98171 10.4699 3.92449 10.6317 3.93777 10.7675C3.9473 10.8598 3.9653 10.9464 4.0094 11.03C4.02647 11.059 4.04355 11.0879 4.05882 11.1152C4.06447 11.1881 4.06975 11.261 4.07483 11.3339C4.08231 11.4416 4.08934 11.5494 4.09636 11.6571C4.11014 11.8685 4.1239 12.0797 4.14121 12.2902C4.16503 12.5844 4.19156 12.8776 4.21821 13.1712C4.22817 13.281 4.23814 13.3908 4.248 13.5008C4.31432 14.2533 4.3544 15.0052 4.34909 15.7593L4.34752 15.8398L4.3475 15.8402C4.34269 16.0828 4.33789 16.3254 4.35851 16.5669C4.36633 16.6556 4.37658 16.7449 4.38686 16.8343C4.4056 16.9976 4.42438 17.1613 4.42847 17.3227C4.42435 17.4226 4.41841 17.5208 4.41613 17.6223C4.41543 17.6416 4.41445 17.6609 4.41346 17.6803C4.41015 17.7456 4.40684 17.8112 4.41381 17.8743C4.43364 18.0763 4.4832 18.3153 4.66386 18.4399C4.79223 18.5291 4.95694 18.5348 5.111 18.5402L5.14955 18.5416L5.17011 18.5421C5.31356 18.5454 5.45397 18.5487 5.59578 18.5471C5.74115 18.5481 5.88693 18.5465 6.03235 18.5448L6.12695 18.5437C6.21238 18.5428 6.29766 18.5421 6.3826 18.5422C6.52439 18.5453 6.66628 18.5504 6.80816 18.5555L6.8122 18.5557C7.00008 18.5624 7.18795 18.5692 7.37562 18.5714C7.55229 18.572 7.72471 18.5185 7.82961 18.3667C7.90986 18.2493 7.93251 18.0961 7.88948 17.9599C7.86912 17.8979 7.83876 17.8469 7.80343 17.8013C7.84926 17.3182 7.87749 16.8324 7.87947 16.3461C7.88248 16.0714 7.88033 15.7986 7.86939 15.5245C7.86773 15.4886 7.86597 15.4526 7.86418 15.4166L7.86102 15.3541L7.86097 15.3537C7.85043 15.1449 7.83988 14.9355 7.84119 14.7266C7.86581 14.3144 7.87831 13.9046 7.8855 13.4932C7.88645 13.4492 7.88686 13.4048 7.88728 13.3603L7.8873 13.3553C7.88852 13.2193 7.88973 13.0818 7.90567 12.9466C7.91696 12.8855 7.92981 12.8247 7.94316 12.764C7.94939 12.7356 7.95572 12.7073 7.96205 12.679C7.99426 12.5349 8.02648 12.3908 8.04454 12.2441C8.07188 12.0215 8.05917 11.802 8.04641 11.5816C8.04436 11.546 8.04229 11.5104 8.0404 11.4747C8.0294 11.2374 7.82305 11.0493 7.58388 11.0586C7.34653 11.0696 7.15678 11.2778 7.16778 11.5152C7.1699 11.561 7.17232 11.607 7.17473 11.6533C7.18081 11.7691 7.18693 11.886 7.18857 12.0022C7.18692 12.0166 7.1855 12.0308 7.18421 12.0448C7.18314 12.0563 7.18213 12.0678 7.18115 12.0792L7.17965 12.0964C7.17776 12.118 7.17578 12.1397 7.17324 12.162C7.1498 12.2978 7.11938 12.4339 7.09077 12.5716C7.08458 12.6024 7.07736 12.6332 7.07014 12.6641C7.05415 12.7324 7.03812 12.801 7.03287 12.8699C7.01373 13.1078 7.01117 13.3473 7.00864 13.5863L7.00746 13.6933L7.00687 13.7388C7.00346 13.9558 6.99693 14.1726 6.98418 14.3867C6.97058 14.6217 6.95698 14.8567 6.96965 15.0922C6.99597 15.5475 7.00651 16.0018 7.00475 16.4548C6.99551 16.7841 6.98262 17.11 6.95578 17.4365C6.94903 17.5173 6.94409 17.5997 6.93568 17.6823C6.74123 17.6756 6.54679 17.6688 6.35266 17.6691C6.18593 17.6689 6.01839 17.6706 5.85044 17.6722L5.8458 17.6723C5.67878 17.674 5.51133 17.6756 5.3438 17.6756L5.28596 17.673C5.28751 17.6105 5.29049 17.548 5.29353 17.4851L5.29367 17.4819C5.29535 17.447 5.29703 17.412 5.29849 17.3768C5.30347 17.2518 5.28939 17.1249 5.27553 17.0001L5.26995 16.9497C5.24026 16.6485 5.21955 16.3521 5.21612 16.0514C5.22586 15.5823 5.22349 15.1154 5.20348 14.6458C5.18657 14.2106 5.14867 13.7795 5.11066 13.347L5.1106 13.3465L5.11052 13.3453L5.1021 13.2496C5.05933 12.7794 5.01656 12.3091 4.98262 11.8402L4.9782 11.7684L4.97248 11.6735C4.96256 11.5087 4.95261 11.3435 4.93977 11.1794C4.93783 11.1375 4.93406 11.0939 4.93045 11.0539C5.01007 11.0535 5.08971 11.0532 5.16929 11.052C5.21379 11.0513 5.2583 11.0503 5.30275 11.0489C5.44928 11.0464 5.59602 11.0338 5.74259 11.0211C5.77964 11.0179 5.81668 11.0147 5.8537 11.0117C5.9043 11.0075 5.95486 11.0037 6.00537 11.0006C6.51099 10.9667 7.01845 10.9344 7.5257 10.9354C7.76052 10.9455 7.97131 10.7766 7.98992 10.5361C8.00868 10.2992 7.82731 10.0837 7.59033 10.0649C7.58684 10.0651 7.58501 10.0634 7.58152 10.0636C7.53034 10.0537 7.47781 10.0527 7.42745 10.0602C7.19084 10.0568 6.95029 10.0701 6.71182 10.0834L6.71106 10.0834L6.62236 10.0883L6.55967 10.0917C6.45376 10.0966 6.34845 10.103 6.24342 10.1102C6.14916 10.1167 6.05514 10.1237 5.9611 10.1307C5.8829 10.1366 5.8047 10.1424 5.72639 10.1479C5.67181 10.1518 5.61714 10.1554 5.56237 10.1589C5.3551 10.1717 5.14741 10.1754 4.94011 10.1791L4.93103 10.1793Z" fill="white"/>
    <path fill-rule="evenodd" clip-rule="evenodd" d="M4.74351 4.03337C4.86784 4.03687 4.99235 4.0443 5.11711 4.05175C5.22784 4.05836 5.33879 4.06498 5.44999 4.06888C5.56216 4.06644 5.67448 4.06157 5.78679 4.05669L5.78739 4.05663C5.96172 4.04907 6.13595 4.04153 6.3093 4.04307C6.62591 4.04415 6.94268 4.04872 7.25779 4.05512C7.35751 4.05575 7.45905 4.05803 7.56028 4.05334C7.59214 4.05185 7.62403 4.05112 7.65595 4.05075C7.68109 4.05049 7.70624 4.05043 7.7314 4.05047L7.76799 4.0506L7.76869 4.05064L7.77004 4.05064C7.88736 4.05396 7.9973 4.12405 8.07464 4.20793C8.22949 4.37915 8.21767 4.65253 8.06453 4.82054C8.02626 4.86253 7.97882 4.89622 7.93094 4.91942C7.95796 4.97413 7.97484 5.03632 7.97958 5.1008C8.03681 5.26551 8.08187 5.43493 8.12673 5.6036L8.14404 5.66859C8.2112 5.91034 8.26441 6.15273 8.30396 6.40275C8.3432 6.64578 8.35284 6.89196 8.3502 7.13694C8.34818 7.42779 8.30854 7.71022 8.26846 7.99584L8.26646 8.01005C8.2428 8.17907 8.1997 8.3437 8.14947 8.50519L8.14954 8.50551C8.15365 8.51921 8.15776 8.53287 8.15839 8.54675C8.19121 8.72713 8.10571 8.91997 7.94738 9.013C7.83676 9.07934 7.7199 9.08651 7.59591 9.0905C7.49467 9.09519 7.39709 9.10321 7.29788 9.11305C7.20821 9.12763 7.11707 9.14397 7.02757 9.16197C7.03037 9.16138 7.03308 9.16071 7.03576 9.16001L7.04464 9.15757C6.82174 9.21178 6.60299 9.25375 6.3746 9.26774C6.1271 9.28619 5.8791 9.29419 5.63113 9.30217C5.6031 9.30323 5.5751 9.3044 5.54714 9.3056L5.48164 9.30855L5.3942 9.31263L5.39296 9.31272C5.33174 9.31561 5.27057 9.31849 5.20933 9.32103C5.13942 9.32395 5.06942 9.32642 4.9992 9.32792C4.79824 9.33199 4.5935 9.32921 4.45461 9.1625C4.38424 9.07832 4.35709 8.98339 4.35225 8.87867C4.35185 8.86989 4.35191 8.86154 4.35196 8.85318L4.35197 8.8527C4.35201 8.84461 4.35205 8.83649 4.35166 8.82798L4.35128 8.83203C4.35031 8.84131 4.34956 8.84883 4.35093 8.85811L4.34962 8.85954C4.32429 8.6526 4.31294 8.44498 4.30674 8.2354C4.3023 8.0642 4.31182 7.89238 4.32135 7.72053C4.32461 7.63992 4.34003 7.55701 4.35028 7.47608C4.3676 7.32136 4.38491 7.16664 4.38994 7.01076C4.38805 6.74896 4.36171 6.48829 4.33558 6.22966L4.33554 6.22889L4.32444 6.11814L4.32659 6.13397L4.3221 6.09445L4.32206 6.09825C4.32152 6.09294 4.32107 6.08772 4.32075 6.08261C4.2795 5.7205 4.2383 5.35851 4.19868 4.99788L4.19167 4.93994C4.17431 4.79692 4.15662 4.65114 4.18494 4.51049C4.18722 4.40895 4.20398 4.31723 4.2646 4.22871C4.27608 4.21244 4.28758 4.19616 4.30089 4.18156C4.41606 4.06252 4.57714 4.02885 4.74351 4.03337Z" fill="white"/>
    <path fill-rule="evenodd" clip-rule="evenodd" d="M4.93486 0.423385C5.02312 0.419309 5.11229 0.434841 5.20057 0.450223C5.22403 0.454303 5.24743 0.458365 5.27072 0.462048C5.38686 0.477677 5.50334 0.500263 5.61965 0.519354C6.02325 0.586382 6.42874 0.655041 6.83552 0.714888C6.90624 0.721883 6.97726 0.729162 7.0486 0.736479C7.14742 0.746645 7.24684 0.756835 7.34685 0.766413C7.42245 0.775166 7.49941 0.775115 7.57653 0.778525C7.60582 0.779752 7.6356 0.780208 7.66556 0.780668C7.75753 0.782099 7.85129 0.783574 7.93815 0.807242C8.09049 0.849174 8.21752 0.948226 8.26501 1.10517C8.29579 1.20346 8.2897 1.29818 8.25518 1.38371C8.27591 1.416 8.29148 1.45027 8.30373 1.48816C8.38451 1.76808 8.36805 2.06067 8.35179 2.34938L8.35137 2.35683C8.34933 2.39318 8.3473 2.42948 8.34549 2.46566C8.34111 2.54761 8.33251 2.62972 8.32384 2.7127C8.32137 2.73624 8.3189 2.75986 8.31651 2.78355C8.29581 2.97866 8.25964 3.17973 8.1014 3.31296C7.91894 3.4664 7.71703 3.41904 7.51688 3.37209C7.49729 3.36749 7.4777 3.3629 7.45814 3.3585C7.36716 3.39596 7.2704 3.42142 7.1715 3.43824C7.01008 3.46496 6.84436 3.47437 6.6815 3.46966C6.52134 3.46479 6.363 3.4409 6.20498 3.41709L6.13993 3.4073C5.97094 3.38366 5.79876 3.36715 5.62708 3.36109C5.5222 3.36246 5.41915 3.36549 5.31643 3.37548C5.26342 3.38308 5.21222 3.39231 5.16104 3.40153L5.15996 3.40178L5.1585 3.40204C5.04973 3.47005 4.90163 3.48214 4.78252 3.44041C4.59578 3.37387 4.48782 3.19523 4.48591 3.00291C4.48522 2.89507 4.49052 2.78812 4.49583 2.68041C4.497 2.65715 4.49814 2.63387 4.49923 2.61054C4.50991 2.31274 4.52062 2.01491 4.52599 1.71558C4.52526 1.51098 4.52286 1.30822 4.50468 1.10441C4.49382 1.02098 4.48661 0.940867 4.49534 0.865247C4.49526 0.857213 4.49539 0.849169 4.49575 0.841092C4.49626 0.829594 4.49723 0.818072 4.49873 0.806464L4.49992 0.79804C4.50107 0.790397 4.50248 0.782709 4.50415 0.775C4.508 0.757133 4.51323 0.739085 4.52013 0.720682C4.53848 0.663874 4.56946 0.615225 4.60776 0.573207C4.69098 0.481904 4.80919 0.429227 4.93486 0.423385Z" fill="white"/>
</svg>
