<svg viewBox="0 0 22 22" fill="none"
    xmlns="http://www.w3.org/2000/svg">
    <path d="M16.2857 4.14926C16.0371 4.14926 15.794 4.22299 15.5873 4.36113C15.3805 4.49927 15.2194 4.69562 15.1242 4.92534C15.0291 5.15505 15.0042 5.40783 15.0527 5.6517C15.1012 5.89556 15.2209 6.11957 15.3967 6.29539C15.5726 6.47121 15.7966 6.59094 16.0404 6.63945C16.2843 6.68796 16.5371 6.66306 16.7668 6.56791C16.9965 6.47276 17.1929 6.31162 17.331 6.10488C17.4691 5.89814 17.5429 5.65508 17.5429 5.40643C17.5429 5.07301 17.4104 4.75324 17.1747 4.51748C16.9389 4.28171 16.6191 4.14926 16.2857 4.14926ZM21.1049 6.68456C21.0845 5.81533 20.9217 4.95532 20.6229 4.13879C20.3566 3.44015 19.942 2.80752 19.4077 2.28446C18.8889 1.74746 18.2548 1.33548 17.5533 1.07967C16.739 0.771826 15.878 0.605303 15.0076 0.587273C13.8971 0.524414 13.5409 0.524414 10.6913 0.524414C7.84169 0.524414 7.48549 0.524414 6.37499 0.587273C5.50456 0.605303 4.64359 0.771826 3.82922 1.07967C3.12905 1.33807 2.4955 1.7497 1.97489 2.28446C1.43789 2.80323 1.02591 3.43732 0.770095 4.13879C0.462256 4.95316 0.295732 5.81413 0.277702 6.68456C0.214844 7.79506 0.214844 8.15126 0.214844 11.0009C0.214844 13.8504 0.214844 14.2066 0.277702 15.3171C0.295732 16.1876 0.462256 17.0485 0.770095 17.8629C1.02591 18.5644 1.43789 19.1985 1.97489 19.7172C2.4955 20.252 3.12905 20.6636 3.82922 20.922C4.64359 21.2299 5.50456 21.3964 6.37499 21.4144C7.48549 21.4773 7.84169 21.4773 10.6913 21.4773C13.5409 21.4773 13.8971 21.4773 15.0076 21.4144C15.878 21.3964 16.739 21.2299 17.5533 20.922C18.2548 20.6662 18.8889 20.2542 19.4077 19.7172C19.9443 19.1961 20.3593 18.563 20.6229 17.8629C20.9217 17.0464 21.0845 16.1864 21.1049 15.3171C21.1049 14.2066 21.1677 13.8504 21.1677 11.0009C21.1677 8.15126 21.1677 7.79506 21.1049 6.68456ZM19.2191 15.1914C19.2115 15.8564 19.091 16.5153 18.8629 17.14C18.6956 17.596 18.427 18.0079 18.0772 18.3448C17.7374 18.6911 17.3262 18.9592 16.8724 19.1306C16.2477 19.3587 15.5888 19.4791 14.9238 19.4868C13.8761 19.5392 13.4885 19.5496 10.7332 19.5496C7.97788 19.5496 7.59026 19.5496 6.54261 19.4868C5.8521 19.4997 5.16454 19.3934 4.51018 19.1725C4.07623 18.9924 3.68397 18.7249 3.35778 18.3867C3.01005 18.0502 2.74474 17.6379 2.58252 17.182C2.32674 16.5483 2.18488 15.8744 2.16346 15.1914C2.16346 14.1438 2.1006 13.7562 2.1006 11.0009C2.1006 8.24555 2.1006 7.85792 2.16346 6.81028C2.16816 6.13041 2.29227 5.45666 2.53014 4.81975C2.71457 4.37755 2.99766 3.98338 3.35778 3.66735C3.67606 3.30713 4.06943 3.02105 4.51018 2.82923C5.14878 2.59879 5.82183 2.47835 6.50071 2.47303C7.54835 2.47303 7.93598 2.41017 10.6913 2.41017C13.4466 2.41017 13.8342 2.41017 14.8819 2.47303C15.5469 2.48066 16.2058 2.6011 16.8305 2.82923C17.3066 3.00592 17.7339 3.29318 18.0772 3.66735C18.4205 3.98916 18.6887 4.38261 18.8629 4.81975C19.0957 5.4577 19.2163 6.13117 19.2191 6.81028C19.2715 7.85792 19.282 8.24555 19.282 11.0009C19.282 13.7562 19.2715 14.1438 19.2191 15.1914ZM10.6913 5.62644C9.62877 5.62851 8.59072 5.94547 7.70828 6.53728C6.82584 7.12909 6.13862 7.96918 5.73345 8.9514C5.32828 9.93363 5.22334 11.0139 5.43189 12.0558C5.64045 13.0976 6.15314 14.0542 6.90518 14.8048C7.65722 15.5554 8.61486 16.0662 9.65711 16.2728C10.6994 16.4793 11.7794 16.3722 12.7609 15.9652C13.7423 15.5581 14.5811 14.8692 15.1711 13.9856C15.7612 13.102 16.0762 12.0634 16.0762 11.0009C16.0776 10.2938 15.9391 9.59346 15.6689 8.94009C15.3986 8.28673 15.0019 7.69324 14.5014 7.19377C14.001 6.69429 13.4067 6.29869 12.7528 6.02971C12.0989 5.76073 11.3983 5.62368 10.6913 5.62644ZM10.6913 14.4895C10.0013 14.4895 9.3268 14.2849 8.75309 13.9016C8.17938 13.5182 7.73223 12.9734 7.46819 12.3359C7.20414 11.6984 7.13505 10.997 7.26966 10.3203C7.40427 9.64352 7.73653 9.0219 8.22443 8.534C8.71233 8.0461 9.33395 7.71384 10.0107 7.57923C10.6874 7.44462 11.3889 7.51371 12.0263 7.77776C12.6638 8.0418 13.2087 8.48895 13.592 9.06266C13.9753 9.63637 14.1799 10.3109 14.1799 11.0009C14.1799 11.459 14.0897 11.9126 13.9144 12.3359C13.7391 12.7592 13.4821 13.1438 13.1581 13.4677C12.8342 13.7917 12.4496 14.0486 12.0263 14.2239C11.6031 14.3993 11.1494 14.4895 10.6913 14.4895Z" fill="#EFEFED"/>
</svg>
