<svg viewBox="0 0 36 32" fill="none"
    xmlns="http://www.w3.org/2000/svg">
    <path d="M9.05556 28.7247H15.2778C15.2778 30.3046 13.8778 31.5972 12.1667 31.5972C10.4556 31.5972 9.05556 30.3046 9.05556 28.7247ZM5.94444 27.2885H18.3889V24.416H5.94444V27.2885ZM23.8333 13.6443C23.8333 19.1307 19.6956 22.0606 17.9689 22.9798H6.36444C4.63778 22.0606 0.5 19.1307 0.5 13.6443C0.5 7.69823 5.72667 2.87247 12.1667 2.87247C18.6067 2.87247 23.8333 7.69823 23.8333 13.6443ZM31.4089 10.5851L29.2778 11.4899L31.4089 12.3947L32.3889 14.3624L33.3689 12.3947L35.5 11.4899L33.3689 10.5851L32.3889 8.61742L31.4089 10.5851ZM27.7222 8.61742L29.1844 5.65877L32.3889 4.30871L29.1844 2.95865L27.7222 0L26.26 2.95865L23.0556 4.30871L26.26 5.65877L27.7222 8.61742Z" fill="#F9F8F6"/>
</svg>
