<svg viewBox="0 0 22 22" fill="none"
    xmlns="http://www.w3.org/2000/svg">
    <path d="M1.31284 10.9993C1.31284 5.4114 5.85685 0.865087 11.4408 0.865087C17.0248 0.865087 21.569 5.41141 21.5692 10.9993C21.5692 16.5874 17.025 21.1335 11.4408 21.1335C5.85685 21.1335 1.31284 16.5874 1.31284 10.9993ZM1.59811 10.9993C1.59811 16.4299 6.013 20.8477 11.4408 20.8477C16.8687 20.8477 21.2837 16.4299 21.2839 10.9993C21.2839 5.56887 16.8687 1.15095 11.4408 1.15095C6.013 1.15095 1.59811 5.56888 1.59811 10.9993Z" fill="#EFEFED" stroke="#F1F1F1" stroke-width="0.750683"/>
    <path d="M6.10547 8.77197H8.53615V15.1181H6.10547V8.77197Z" fill="#EFEFED"/>
    <path d="M7.2966 7.75953C7.97601 7.75953 8.52679 7.25677 8.52679 6.6366C8.52679 6.01642 7.97601 5.51367 7.2966 5.51367C6.61718 5.51367 6.06641 6.01642 6.06641 6.6366C6.06641 7.25677 6.61718 7.75953 7.2966 7.75953Z" fill="#EFEFED"/>
    <path d="M14.6429 8.62988C14.1451 8.62988 13.7233 8.72058 13.3766 8.9018C13.0303 9.0832 12.6881 9.38484 12.3495 9.80706V8.77327H10.0859V15.1194H12.5166V12.0717C12.5166 11.494 12.6083 11.0939 12.7915 10.8707C12.9747 10.6477 13.2133 10.5361 13.508 10.5361C13.7748 10.5361 13.9818 10.6188 14.1293 10.7842C14.2767 10.9495 14.3501 11.2313 14.3501 11.6298V15.1194H16.7929V11.086C16.7929 10.2493 16.6026 9.63084 16.2222 9.23039C15.8424 8.82994 15.3156 8.62988 14.6429 8.62988Z" fill="#EFEFED"/>
</svg>
