<svg width="24" height="24" viewBox="0 0 24 24" fill="none"
    xmlns="http://www.w3.org/2000/svg">
    <path fill-rule="evenodd" clip-rule="evenodd" d="M9.94112 12.6463L7.69388 11.8972L7.69388 11.8972L7.69387 11.8972C5.34067 11.1128 4.16406 10.7206 4.16406 9.99985C4.16406 9.27909 5.34067 8.88689 7.69389 8.10249L16.2071 5.26476C17.8628 4.71283 18.6907 4.43687 19.1278 4.87388C19.5648 5.3109 19.2888 6.1388 18.7369 7.79459L15.8991 16.3078L15.8991 16.3078L15.8991 16.3078C15.1147 18.661 14.7225 19.8376 14.0018 19.8376C13.281 19.8376 12.8888 18.661 12.1044 16.3078L11.3553 14.0605L15.7089 9.70696C16.0994 9.31643 16.0994 8.68327 15.7089 8.29275C15.3184 7.90222 14.6852 7.90222 14.2947 8.29275L9.94112 12.6463Z" fill="#222222"/>
</svg>
