<svg viewBox="0 60 165 220" fill="none"
    xmlns="http://www.w3.org/2000/svg">
    <path fill-rule="evenodd" clip-rule="evenodd" d="M78.5203 97.3085C82.1498 96.3254 86.0466 95.8103 90.1665 95.8103C113.693 95.8103 130.161 113.749 130.161 139.334C130.161 164.918 113.693 182.857 90.1665 182.857C68.7881 182.857 53.4191 168.989 50.207 147.81H19V269.61H51.0543V189.327C59.2885 202.56 76.639 211.382 94.8717 211.382C134.572 211.382 162.215 181.681 162.215 139.334C162.215 96.1044 136.042 67.2849 96.9303 67.2849C85.5967 67.2849 74.6642 70.2931 65.8894 75.4312L78.5203 97.3085Z" fill="#535FE5"/>
    <path fill-rule="evenodd" clip-rule="evenodd" d="M67.0859 118.31L35.0429 62.8101L3 118.31H19.0858V267.81H51.0858V118.31H67.0859Z" fill="#535FE5"/>
</svg>
