<svg width="18" height="18" viewBox="0 0 18 18" fill="none"
    xmlns="http://www.w3.org/2000/svg">
    <path fill-rule="evenodd" clip-rule="evenodd" d="M14.2028 7.7957L15.9988 5.9997C16.544 5.45445 16.8167 5.18182 16.9624 4.88773C17.2397 4.32818 17.2397 3.67122 16.9624 3.11167C16.8167 2.81757 16.544 2.54495 15.9988 1.9997C15.4535 1.45445 15.1809 1.18182 14.8868 1.03609C14.3273 0.758804 13.6703 0.758804 13.1108 1.03609C12.8167 1.18182 12.544 1.45445 11.9988 1.9997L10.1801 3.81835C11.144 5.46895 12.5301 6.84451 14.2028 7.7957ZM8.72568 5.27281L1.85517 12.1433C1.43011 12.5684 1.21758 12.7809 1.07785 13.042C0.938115 13.3031 0.87917 13.5978 0.761279 14.1873L0.145883 17.2643C0.079361 17.5969 0.0460999 17.7632 0.140708 17.8578C0.235316 17.9524 0.401621 17.9191 0.734231 17.8526L3.81121 17.2372C4.40066 17.1193 4.69539 17.0604 4.95649 16.9206C5.21758 16.7809 5.43012 16.5684 5.85518 16.1433L12.7446 9.25392C11.1229 8.23827 9.75122 6.87597 8.72568 5.27281Z" fill="#222222"/>
</svg>
