<svg width="37" height="39" viewBox="0 0 37 39" fill="none"
    xmlns="http://www.w3.org/2000/svg">
    <path fill-rule="evenodd" clip-rule="evenodd" d="M21.6133 0.126636C24.4295 0.363286 27.2561 1.06797 29.6901 2.54573C32.0404 3.97615 33.9248 6.11129 35.202 8.54091C35.8406 9.75572 36.3065 11.0652 36.6048 12.4009C36.9137 13.7788 37.0184 15.1987 36.9974 16.6081C36.9503 19.4689 36.3431 22.335 35.1026 24.9172C33.8882 27.4467 32.1032 29.6765 30.1088 31.6275C29.4545 32.2691 28.7689 32.8792 28.0622 33.4682C27.6435 33.8153 27.2194 34.1623 26.7797 34.4831L24.8482 35.8873C24.3091 36.2817 23.7281 36.634 23.1575 36.9759C22.3985 37.4229 21.6134 37.8278 20.8073 38.1696C20.0064 38.5062 19.1741 38.7586 18.3209 38.9059C17.5095 39.0426 16.6877 39.0163 15.8764 38.9164C15.4367 38.8638 15.1016 38.4747 15.0755 38.0487C14.8137 38.1118 14.5206 38.0539 14.2798 37.8857C13.81 37.5586 13.3427 37.2289 12.8744 36.8984C12.6803 36.7613 12.4856 36.6239 12.2908 36.4868L12.1965 36.4237C12.2017 36.4263 12.2057 36.4289 12.2096 36.4316C12.2135 36.4342 12.2175 36.4368 12.2227 36.4395C11.9924 36.2843 11.7621 36.1279 11.5317 35.9714L11.5309 35.9708C11.3009 35.8146 11.0708 35.6583 10.8408 35.5034C10.8523 35.5111 10.8638 35.5195 10.8756 35.5281L10.8846 35.5347C10.6309 35.3666 10.3711 35.2066 10.1108 35.0463C9.98594 34.9695 9.86083 34.8924 9.73634 34.8144C9.50119 34.6668 9.26452 34.5207 9.02774 34.3745C8.5056 34.0522 7.98275 33.7294 7.47501 33.3893C6.3339 32.6215 5.27131 31.759 4.34481 30.7335C3.42354 29.7186 2.66453 28.5668 2.03639 27.3468C1.39778 26.1004 0.921502 24.7752 0.586497 23.4131C0.251491 22.0458 0.0891888 20.6312 0.0263738 19.2218C-0.0364411 17.7913 0.0158986 16.3556 0.151996 14.9305C0.293325 13.4948 0.549846 12.0644 0.968605 10.6813C1.36119 9.38757 1.95265 8.14648 2.69594 7.02107C3.434 5.90618 4.33436 4.92802 5.34461 4.0603C7.47504 2.23019 10.1551 1.15737 12.8718 0.578895C14.7824 0.173956 16.7243 0.000396209 18.6663 0.000396379C19.6452 -0.00486358 20.6292 0.0424917 21.6133 0.126636ZM10.9402 35.5717C10.9217 35.5593 10.9032 35.547 10.8846 35.5347C10.9022 35.5475 10.9204 35.5604 10.9402 35.5717ZM32.7837 8.09388C32.4225 7.56799 32.0351 7.06313 31.6216 6.57931C31.2709 6.19015 30.9045 5.82203 30.5172 5.46969C30.0879 5.0963 29.643 4.74922 29.1772 4.42843C28.7793 4.16548 28.371 3.92357 27.9523 3.7027C27.3451 3.39768 26.7222 3.13999 26.0836 2.9086C25.4083 2.68246 24.7226 2.50366 24.0264 2.35641C22.9324 2.1408 21.8279 1.9988 20.7182 1.92518C19.4358 1.84629 18.1481 1.8305 16.8657 1.90939C15.6618 1.99353 14.4682 2.15132 13.2853 2.39323C12.4923 2.56618 11.715 2.77568 10.9481 3.03217C10.9507 3.03085 10.9533 3.02954 10.9559 3.02954C10.9525 3.02954 10.9497 3.0301 10.9472 3.03103C10.9449 3.03191 10.9428 3.03313 10.941 3.03454C10.939 3.03615 10.9368 3.03823 10.935 3.04006C10.9298 3.04269 10.9245 3.04401 10.9193 3.04533C10.9141 3.04664 10.9089 3.04796 10.9036 3.05059H10.8984C10.8774 3.05585 10.8617 3.0611 10.8408 3.07162L10.8427 3.07156C10.23 3.28994 9.62752 3.53904 9.04535 3.8289C8.53237 4.0971 8.03511 4.3916 7.5483 4.7124C7.10337 5.02267 6.67941 5.354 6.27112 5.70634C5.90471 6.04291 5.54876 6.39001 5.21899 6.76339C4.86828 7.16833 4.54375 7.5943 4.24015 8.0413C3.95225 8.47779 3.69577 8.92481 3.46022 9.39285C3.46855 9.3782 3.47605 9.36355 3.48338 9.34923C3.49448 9.32757 3.50518 9.30666 3.51778 9.28766C3.26129 9.81882 3.03096 10.3605 2.84252 10.9127C2.62791 11.5753 2.45516 12.2537 2.30859 12.9321C2.10968 13.9523 1.98929 14.9778 1.91601 16.0138C1.83749 17.2549 1.83225 18.5013 1.90553 19.7424C1.90291 19.7214 1.90162 19.7003 1.90032 19.6793C1.89902 19.6583 1.89773 19.6372 1.89511 19.6162C1.95793 20.5628 2.07829 21.5094 2.2615 22.4402C2.4133 23.1554 2.6122 23.8549 2.84252 24.5438C3.06237 25.1538 3.31365 25.7481 3.59107 26.3265C3.89467 26.9261 4.22441 27.4993 4.59605 28.0568C4.90144 28.5016 5.2316 28.9316 5.58167 29.3418C5.95974 29.7637 6.35727 30.166 6.77885 30.5442C7.318 31.007 7.88855 31.4224 8.47481 31.8221C9.03073 32.1945 9.60264 32.5445 10.1744 32.8946C10.7778 33.2639 11.3811 33.6332 11.9653 34.0285C11.9617 34.0267 11.9582 34.0256 11.9557 34.0256C12.1782 34.1755 12.3993 34.3253 12.6204 34.4752C12.8416 34.6251 13.0627 34.775 13.2853 34.9249C13.274 34.9174 13.2628 34.9092 13.2514 34.9008C13.7816 35.2599 14.3017 35.6291 14.823 35.9992C15.0148 36.1353 15.2073 36.272 15.4 36.4079C15.6251 36.5657 15.7455 36.8286 15.756 37.0968C15.8711 37.0653 15.9915 37.0548 16.1119 37.0705C16.2899 37.0968 16.4626 37.1126 16.6406 37.1284L16.6469 37.1286C16.9169 37.1391 17.1818 37.1493 17.4467 37.1337C17.7451 37.1074 18.0434 37.0653 18.3365 37.0127C18.6715 36.9391 19.0013 36.8497 19.3259 36.7392C19.9248 36.5269 20.5044 36.2804 21.0739 35.9953C21.0601 36.0015 21.0462 36.0075 21.0323 36.0135C21.9379 35.5455 22.8068 35.0143 23.66 34.4516C23.8159 34.3384 23.9714 34.2251 24.1267 34.112L24.1276 34.1114C24.4985 33.8413 24.8685 33.5718 25.2408 33.3051C26.0679 32.7056 26.8635 32.064 27.633 31.3909C28.5313 30.5863 29.3994 29.7413 30.2028 28.836C30.8459 28.0951 31.4632 27.3285 32.0247 26.5211C32.5063 25.7954 32.9512 25.0539 33.3438 24.2756C33.6526 23.6393 33.9248 22.9871 34.1603 22.314C34.1525 22.3324 34.1459 22.3508 34.1394 22.3692C34.1329 22.3876 34.1263 22.406 34.1185 22.4244C34.375 21.6829 34.5843 20.9256 34.7466 20.1526C34.9193 19.2533 35.0345 18.3488 35.1026 17.439C35.1493 16.6715 35.1497 15.9039 35.1087 15.1364C35.1094 15.1404 35.1107 15.1438 35.113 15.1461C35.113 15.1382 35.1117 15.1303 35.1104 15.1224C35.1091 15.1145 35.1078 15.1067 35.1078 15.0988C35.1078 15.0856 35.1065 15.0725 35.1052 15.0593C35.1039 15.0462 35.1026 15.033 35.1026 15.0199V15.0672C35.0502 14.373 34.9612 13.6841 34.8304 12.9952C34.71 12.4325 34.5582 11.8803 34.3802 11.3334C34.1767 10.7515 33.942 10.1801 33.6658 9.61916C33.4047 9.10026 33.1071 8.58661 32.7837 8.09388ZM35.1078 15.1198C35.1078 15.1256 35.1078 15.1315 35.1087 15.1364L35.1078 15.1198ZM13.2514 34.9008L13.1858 34.8565C13.209 34.8698 13.2301 34.8853 13.2504 34.9001L13.2514 34.9008ZM11.9766 34.0361C11.9738 34.0333 11.9695 34.0305 11.9653 34.0285L11.9766 34.0361ZM10.872 3.06119L10.8427 3.07156C10.8525 3.07098 10.8622 3.06609 10.872 3.06119ZM30.1998 28.8395C30.1904 28.85 30.181 28.8606 30.1717 28.8719L30.1998 28.8395ZM14.1961 9.40863C14.2013 9.40863 14.2118 9.40863 14.217 9.41389C14.3348 9.43632 14.4453 9.47765 14.5444 9.53459C14.6272 9.52192 14.71 9.51379 14.7928 9.51379C14.9209 9.51379 15.0369 9.54591 15.155 9.57858C15.1721 9.5833 15.1892 9.58804 15.2064 9.59269C15.3791 9.64528 15.5309 9.74519 15.6827 9.84511C15.7719 9.90481 15.8589 9.96661 15.9452 10.0279C15.9958 10.0637 16.046 10.0994 16.0963 10.1343C16.2186 10.2133 16.3419 10.2909 16.4653 10.3686C16.8434 10.6068 17.2224 10.8455 17.5776 11.123C17.7006 11.2177 17.821 11.3163 17.9414 11.4149C18.0618 11.5135 18.1822 11.6121 18.3052 11.7068C18.5214 11.8696 18.7375 12.0292 18.9563 12.1908C19.013 12.2326 19.0699 12.2746 19.127 12.3168C19.7918 12.748 20.4775 13.153 21.1632 13.5421C21.8856 13.9523 22.566 14.4099 23.2518 14.8779C23.7275 15.1878 24.2137 15.4819 24.6999 15.776L24.7017 15.7772C25.0276 15.9713 25.3452 16.1792 25.6625 16.387C25.7836 16.4662 25.9046 16.5454 26.026 16.6239C26.384 16.8569 26.7457 17.0838 27.1075 17.3107C27.6928 17.6778 28.2781 18.0449 28.8474 18.4382C29.172 18.617 29.3708 19.0114 29.3237 19.3848C29.3066 19.5142 29.2638 19.6321 29.2012 19.7351C29.1845 19.8481 29.1459 19.9569 29.0829 20.0527C29.0201 20.1473 28.9625 20.221 28.884 20.2946L28.8944 20.2814C28.9105 20.261 28.9242 20.2436 28.9416 20.2262C28.952 20.2157 28.9573 20.2052 28.9625 20.1947C28.9311 20.2368 28.8944 20.2788 28.8578 20.3156C28.8508 20.3227 28.8436 20.3299 28.835 20.3369C28.8356 20.3368 28.8363 20.3367 28.8369 20.3367C28.8308 20.3428 28.8246 20.3472 28.8195 20.3508C28.8159 20.3534 28.8129 20.3555 28.8107 20.3577C28.8107 20.3577 28.8055 20.3577 28.8055 20.363C28.6537 20.4944 28.46 20.5681 28.2664 20.5838C27.9629 20.7575 27.6643 20.9479 27.3671 21.1374C27.2235 21.229 27.0801 21.3204 26.9368 21.4095C26.6435 21.5908 26.3482 21.7701 26.0522 21.9499C25.8676 22.062 25.6822 22.1747 25.4973 22.2877C25.2216 22.456 24.9412 22.6103 24.6609 22.7646C24.5207 22.8417 24.3806 22.9188 24.241 22.9977C23.8484 23.2186 23.4558 23.4342 23.058 23.6498C22.1737 24.1229 21.2885 24.5966 20.4251 25.117C19.9435 25.4063 19.462 25.7008 18.9752 26.0005C18.5616 26.2582 18.1376 26.5159 17.6979 26.7262C17.3158 26.9103 16.9285 27.0786 16.5359 27.2311C16.3647 27.3007 16.1872 27.3576 16.0108 27.4141C15.9606 27.4302 15.9105 27.4462 15.8606 27.4625C15.7873 27.4835 15.7089 27.5046 15.6303 27.5256C15.3477 27.6045 15.0807 27.6203 14.798 27.5835C14.3636 27.5256 13.9657 27.189 13.7511 26.8209C13.5195 26.4219 13.4715 25.9414 13.4258 25.484C13.4209 25.435 13.416 25.3862 13.4109 25.3379C13.3112 24.4515 13.3064 23.5507 13.3017 22.6584L13.301 22.5244C13.2999 22.1228 13.3004 21.7213 13.3009 21.3198C13.3029 19.8283 13.3049 18.3375 13.2224 16.85V16.8553C13.1929 16.4711 13.1594 16.0869 13.1259 15.7027C13.0646 14.9983 13.0032 14.2939 12.9659 13.5895C12.9398 13.0636 12.9294 12.5324 12.9555 12.0065C12.9608 11.9311 12.9657 11.8558 12.9707 11.7804C12.9853 11.556 13 11.3316 13.0235 11.1072C13.0549 10.7707 13.0916 10.4131 13.1806 10.0818C13.28 9.70314 13.6569 9.39287 14.0548 9.39287C14.1019 9.39287 14.149 9.39811 14.1961 9.40863ZM26.7942 19.3116C26.7721 19.3257 26.7498 19.3396 26.7274 19.3533C26.4866 19.5005 26.2511 19.6477 26.0103 19.8003C25.6777 20.0091 25.3424 20.2124 25.0063 20.4162L25.0046 20.4173C24.8757 20.4954 24.7468 20.5736 24.6179 20.6522C23.9128 21.0838 23.1869 21.4735 22.4625 21.8625C22.3748 21.9096 22.2872 21.9566 22.1996 22.0037C22.0717 22.0729 21.9436 22.142 21.8155 22.2111L21.8144 22.2116C21.0562 22.6205 20.2947 23.0311 19.5562 23.4762C19.3145 23.6216 19.0741 23.769 18.8336 23.9164C18.2042 24.3022 17.5747 24.6881 16.9232 25.0382C16.4888 25.238 16.0543 25.4273 15.6041 25.5903C15.5099 25.6219 15.4104 25.6534 15.3162 25.6797C15.2639 25.3484 15.2325 25.0119 15.2063 24.6753V24.6174C15.2011 24.6016 15.2011 24.5859 15.2011 24.5701C15.1487 23.571 15.1509 22.5647 15.1531 21.5601C15.1535 21.3592 15.154 21.158 15.154 20.9572C15.154 20.7716 15.1543 20.586 15.1546 20.4004L15.1546 20.3973C15.1556 19.8374 15.1566 19.2783 15.1487 18.7222C15.1383 17.9018 15.1017 17.0814 15.0388 16.2662C15.0109 15.9171 14.9793 15.5666 14.9476 15.215C14.9139 14.8412 14.8801 14.4656 14.8504 14.0891C14.8085 13.3002 14.7928 12.5167 14.8295 11.7226C14.8354 11.6569 14.8417 11.5917 14.8483 11.5267C15.0084 11.6402 15.1688 11.7525 15.3372 11.854C15.5728 11.996 15.8083 12.1432 16.0386 12.2958C16.3014 12.4829 16.5515 12.6828 16.8023 12.8832C16.9462 12.9982 17.0904 13.1135 17.2374 13.2266C17.7032 13.5895 18.1848 13.9208 18.6821 14.2416C19.0872 14.4992 19.5175 14.7417 19.9385 14.9789L19.9645 14.9936C20.4199 15.2513 20.8701 15.5142 21.3098 15.7929C21.4443 15.885 21.5785 15.9786 21.7129 16.0724C22.07 16.3215 22.4289 16.572 22.8016 16.7974C22.9858 16.9098 23.1718 17.0198 23.3579 17.1299C23.7115 17.3389 24.0656 17.5482 24.4085 17.7756C25.1329 18.2535 25.8597 18.7164 26.5873 19.1799C26.6563 19.2238 26.7252 19.2677 26.7942 19.3116Z" fill="black"/>
</svg>
