<svg viewBox="0 0 36 36" fill="none"
    xmlns="http://www.w3.org/2000/svg">
    <path d="M35.8106 0.488492C35.7959 0.417357 35.7613 0.351882 35.7108 0.299744C35.6603 0.247605 35.5959 0.210964 35.5253 0.194114C30.8188 -0.95766 19.9439 3.14674 14.052 9.04154C13.0011 10.0849 12.0431 11.2179 11.1888 12.4277C9.37192 12.2668 7.55502 12.4011 6.00651 13.0768C1.63743 15.0015 0.365356 20.0236 0.0109754 22.184C-0.00912566 22.3022 -0.00154352 22.4235 0.0331253 22.5383C0.0677941 22.6532 0.128604 22.7584 0.210773 22.8457C0.292942 22.933 0.394228 23 0.506666 23.0415C0.619104 23.083 0.739627 23.0978 0.858756 23.0848L7.87484 22.3103C7.87985 22.8397 7.91177 23.3685 7.97047 23.8947C8.00578 24.2602 8.16784 24.6017 8.42851 24.8599L11.1454 27.5729C11.4037 27.8334 11.7448 27.9956 12.1097 28.0313C12.6325 28.0899 13.1579 28.1218 13.6839 28.127L12.9141 35.1406C12.9013 35.2598 12.9162 35.3804 12.9577 35.4928C12.9992 35.6053 13.0662 35.7066 13.1534 35.7888C13.2406 35.871 13.3456 35.9319 13.4603 35.9667C13.5749 36.0014 13.696 36.0091 13.8141 35.9892C15.9685 35.6433 20.9949 34.3701 22.9067 29.9971C23.5817 28.4472 23.7199 26.6374 23.564 24.8277C24.7757 23.9726 25.9106 23.0135 26.9559 21.9612C32.8663 16.0752 36.9437 5.4334 35.8106 0.488492ZM21.0592 14.9395C20.5195 14.3997 20.1519 13.7118 20.0029 12.9628C19.8539 12.2139 19.9301 11.4375 20.222 10.7319C20.5138 10.0263 21.0082 9.42319 21.6426 8.99886C22.277 8.57453 23.0228 8.34804 23.7858 8.34804C24.5488 8.34804 25.2946 8.57453 25.929 8.99886C26.5634 9.42319 27.0578 10.0263 27.3496 10.7319C27.6415 11.4375 27.7177 12.2139 27.5687 12.9628C27.4197 13.7118 27.052 14.3997 26.5124 14.9395C26.1545 15.2983 25.7295 15.5828 25.2616 15.777C24.7938 15.9712 24.2923 16.0711 23.7858 16.0711C23.2793 16.0711 22.7778 15.9712 22.31 15.777C21.8421 15.5828 21.4171 15.2983 21.0592 14.9395Z" fill="black"/>
</svg>
