<svg viewBox="0 0 25 22" fill="none"
    xmlns="http://www.w3.org/2000/svg">
    <path d="M24.0869 10.1359L14.3089 0.357859C14.138 0.186977 13.9202 0.0706107 13.6831 0.0234715C13.4461 -0.0236678 13.2004 0.000536509 12.9771 0.0930243C12.7538 0.185512 12.5629 0.342131 12.4286 0.543081C12.2943 0.744031 12.2226 0.98029 12.2225 1.22199V5.55487C8.88368 5.86385 5.7803 7.40763 3.5197 9.88412C1.25911 12.3606 0.00399888 15.5915 0 18.9446V20.778C0.000192939 21.0317 0.0793359 21.2791 0.226452 21.4858C0.373567 21.6925 0.581363 21.8483 0.821017 21.9316C1.06067 22.0149 1.32031 22.0215 1.56391 21.9506C1.80751 21.8797 2.023 21.7347 2.1805 21.5358C3.37793 20.1118 4.84715 18.9408 6.50231 18.091C8.15747 17.2413 9.96537 16.73 11.8204 16.5869C11.8815 16.5796 12.0343 16.5674 12.2225 16.5551V20.778C12.2226 21.0197 12.2943 21.256 12.4286 21.4569C12.5629 21.6579 12.7538 21.8145 12.9771 21.907C13.2004 21.9995 13.4461 22.0237 13.6831 21.9765C13.9202 21.9294 14.138 21.813 14.3089 21.6421L24.0869 11.8641C24.316 11.6349 24.4448 11.3241 24.4448 11C24.4448 10.6759 24.316 10.3651 24.0869 10.1359ZM14.667 17.8275V15.2779C14.667 14.9537 14.5382 14.6428 14.309 14.4136C14.0798 14.1844 13.7689 14.0556 13.4448 14.0556C13.1331 14.0556 11.8607 14.1167 11.5356 14.1595C8.24147 14.463 5.10585 15.7146 2.50806 17.7627C2.80292 15.067 4.08176 12.5747 6.09971 10.7631C8.11767 8.95148 10.7329 7.94785 13.4448 7.94437C13.7689 7.94437 14.0798 7.8156 14.309 7.58638C14.5382 7.35717 14.667 7.04628 14.667 6.72212V4.1725L21.4945 11L14.667 17.8275Z" fill="#EFEFED"/>
</svg>
